<?xml version="1.0" standalone="no"?>
<!DOCTYPE svg PUBLIC "-//W3C//DTD SVG 1.1//EN" "http://www.w3.org/Graphics/SVG/1.1/DTD/svg11.dtd" >
<svg xmlns="http://www.w3.org/2000/svg">
<metadata>Generated by IcoMoon</metadata>
<defs>
<font id="fed-font" horiz-adv-x="1024">
<font-face units-per-em="1024" ascent="960" descent="-64" />
<missing-glyph horiz-adv-x="1024" />
<glyph unicode="&#x20;" horiz-adv-x="512" d="" />
<glyph unicode="&#xe900;" glyph-name="safety" d="M273.067 74.023c68.97-44.156 150.962-69.756 238.933-69.756 245.067 0 443.733 198.666 443.733 443.733s-198.666 443.733-443.733 443.733c-245.067 0-443.733-198.666-443.733-443.733 0-125.84 52.383-239.445 136.533-320.2v251.933c0 37.703 30.564 68.267 68.267 68.267h477.867c37.703 0 68.267-30.564 68.267-68.267v-147.666c-19.38-27.52-42.364-52.32-68.267-73.712v221.378h-477.867v-305.711zM512-64c-282.77 0-512 229.23-512 512s229.23 512 512 512c282.77 0 512-229.23 512-512s-229.23-512-512-512zM750.933 516.267h-68.267c0 94.257-76.41 170.667-170.667 170.667s-170.667-76.41-170.667-170.667h-68.267c0 131.959 106.974 238.933 238.933 238.933s238.933-106.974 238.933-238.933zM512 140.8c-37.703 0-68.267 30.564-68.267 68.267s30.564 68.267 68.267 68.267c37.703 0 68.267-30.564 68.267-68.267s-30.564-68.267-68.267-68.267z" />
<glyph unicode="&#xe901;" glyph-name="funds-password" d="M273.067 74.023c68.97-44.156 150.962-69.756 238.933-69.756 245.067 0 443.733 198.666 443.733 443.733s-198.666 443.733-443.733 443.733c-245.067 0-443.733-198.666-443.733-443.733 0-125.84 52.383-239.445 136.533-320.2v287.912c0 193.73 139.301 271.222 307.2 271.222h290.133l34.133-68.267h-324.267c-153.416 0-238.933-66.789-238.933-202.955v-341.689zM512-64c-282.77 0-512 229.23-512 512s229.23 512 512 512c282.77 0 512-229.23 512-512s-229.23-512-512-512zM443.733 448h221.867l-34.133-102.4h-221.867l34.133 102.4zM750.933 448h128l-34.133-102.4h-128l34.133 102.4z" />
<glyph unicode="&#xe902;" glyph-name="fish-code" d="M512-64c-282.77 0-512 229.23-512 512s229.23 512 512 512c282.77 0 512-229.23 512-512s-229.23-512-512-512zM512 4.267c245.067 0 443.733 198.666 443.733 443.733s-198.666 443.733-443.733 443.733c-245.067 0-443.733-198.666-443.733-443.733s198.666-443.733 443.733-443.733zM497.253 650.535l-185.585-68.726c-0.394-7.887-0.987-17.865-1.897-32.703-5.752-93.809-2.537-142.488 20.429-198.224 28.263-68.59 84.22-128.076 181.8-179.94v-74.514l-30.622 14.233c-111.019 59.007-179.674 130.189-214.297 214.213-28.049 68.071-31.799 124.855-25.449 228.41 1.9 30.985 2.357 39.815 2.534 53.024l0.314 23.418 252.773 93.608 253.022-93.7 0.068-23.685c0.028-9.61 0.046-12.261 0.29-44.263 0.091-11.945 0.15-20.387 0.198-28.865 0.157-27.668 0.343-17.323 0.103-33.618l-68.267-68.267c0.232 15.716 0.052 74.262-0.102 101.498-0.048 8.424-0.106 16.827-0.197 28.732-0.069 9.004-0.119 15.695-0.158 20.877l-184.957 68.494zM502.878 363.463l96.029-96.466 171.767 175.21 48.748-47.79-220.144-224.557-144.782 145.441 48.381 48.162z" />
<glyph unicode="&#xe903;" glyph-name="password" d="M512-64c-282.77 0-512 229.23-512 512s229.23 512 512 512c282.77 0 512-229.23 512-512s-229.23-512-512-512zM512 4.267c245.067 0 443.733 198.666 443.733 443.733s-198.666 443.733-443.733 443.733c-245.067 0-443.733-198.666-443.733-443.733s198.666-443.733 443.733-443.733zM231.938 567.467h64.143l-2.577-71.8 65.485 25.017 20.215-60.644-67.294-20.115 45.324-53.73-49.852-39.697-43.326 60.048-43.326-60.048-49.852 39.697 45.324 53.73-67.294 20.115 20.204 60.613 65.772-24.986-2.946 71.801zM473.329 567.467h64.143l-2.577-71.8 65.485 25.017 20.215-60.644-67.294-20.115 45.324-53.73-49.852-39.697-43.326 60.048-43.326-60.048-49.852 39.697 45.324 53.73-67.294 20.115 20.204 60.613 65.772-24.986-2.946 71.801zM709.805 567.467h64.143l-2.577-71.8 65.485 25.017 20.215-60.644-67.294-20.115 45.324-53.73-49.852-39.697-43.326 60.048-43.326-60.048-49.852 39.697 45.324 53.73-67.294 20.115 20.204 60.613 65.772-24.986-2.946 71.801z" />
<glyph unicode="&#xe904;" glyph-name="phone" d="M304.887 55.467c61.828-32.69 132.309-51.2 207.113-51.2 245.067 0 443.733 198.666 443.733 443.733s-198.666 443.733-443.733 443.733c-245.067 0-443.733-198.666-443.733-443.733 0-142.085 66.781-268.572 170.667-349.788v520.454h546.133v-426.667l-68.267-51.2v409.6h-409.6v-494.933h-2.313zM512-64c-282.77 0-512 229.23-512 512s229.23 512 512 512c282.77 0 512-229.23 512-512s-229.23-512-512-512zM375.467 482.133h273.067v-68.267h-273.067v68.267z" />
<glyph unicode="&#xe905;" glyph-name="email" d="M512-64c-282.77 0-512 229.23-512 512s229.23 512 512 512c282.77 0 512-229.23 512-512s-229.23-512-512-512zM512 4.267c245.067 0 443.733 198.666 443.733 443.733s-198.666 443.733-443.733 443.733c-245.067 0-443.733-198.666-443.733-443.733s198.666-443.733 443.733-443.733zM238.933 652.8h546.133v-109.714l-273.067-146.286-273.067 146.286v109.714zM300.373 591.36v-11.488l211.627-113.371 211.627 113.371v11.488h-423.253zM724.385 448l60.681 34.133v-273.067h-546.133v273.067l60.681-34.133v-176.873h424.77v176.873z" />
<glyph unicode="&#xe906;" glyph-name="ga" d="M580.267 323.594v198.287l60.648 165.052h70.095l161.219-443.733h-75.276l-35.048 103.619h-173.714l-7.924-23.225zM609.524 408.686h131.352l-64.305 189.562h-1.829l-65.219-189.562zM545 302.933c-11.6-16.6-30.65-31.65-57.15-45.15s-60.55-20.25-102.15-20.25c-52.6 0-95.9 16.65-129.9 49.95s-51 76.35-51 129.15v91.2c0 52.8 16.050 95.85 48.15 129.15s73.55 49.95 124.35 49.95c51.4 0 91.35-12.65 119.85-37.95s43.050-58.25 43.65-98.85l-0.6-1.8h-69c-1.6 24-10.15 43.35-25.65 58.050s-37.95 22.050-67.35 22.050c-30.2 0-54.55-11.3-73.050-33.9s-27.75-51.3-27.75-86.1v-91.8c0-35.2 10.050-64.15 30.15-86.85s46.15-34.050 78.15-34.050c22.8 0 41.3 2.65 55.5 7.95s24.5 11.55 30.9 18.75v88.8h-86.7v54.6h159.6v-162.9zM512-64c-282.77 0-512 229.23-512 512s229.23 512 512 512c282.77 0 512-229.23 512-512s-229.23-512-512-512zM512 4.267c245.067 0 443.733 198.666 443.733 443.733s-198.666 443.733-443.733 443.733c-245.067 0-443.733-198.666-443.733-443.733s198.666-443.733 443.733-443.733z" />
<glyph unicode="&#xe907;" glyph-name="play" horiz-adv-x="904" d="M668.402 647.817l-471.576 272.145 346.391-425.916 125.184 153.771zM96.091 959.488c-0.239 0-0.171 0.034-0.034 0.068-0.102 0.171-0.239 0.307-0.376 0.444-61.397-1.946-95.681-53.18-95.681-128.649v-766.635c0-76.459 33.977-127.886 96.876-128.717l415.028 514.628-415.813 508.86zM187.64-29.218l483.425 279.142-127.928 157.286-355.497-436.429zM831.114 553.95l-114.633 66.15-138.058-169.438 140.722-173.056 111.969 64.66c46.611 26.965 72.415 64.683 72.415 105.916 0 41.119-25.69 78.768-72.415 105.768z" />
<glyph unicode="&#xe908;" glyph-name="apple" horiz-adv-x="853" d="M702.592 415.891c1.412-154.907 136.988-206.361 138.551-207.129-1.232-3.488-21.725-73.437-71.544-145.659-43.089-62.366-87.68-124.476-158.052-125.724-69.2-1.312-91.436 40.671-170.552 40.671-79.086 0-103.785-39.423-169.23-41.983-67.878-2.56-119.621 67.326-163.070 129.531-88.762 127.163-156.55 359.315-65.444 515.982 45.162 77.821 125.961 127.099 213.701 128.411 66.706 1.184 129.717-44.606 170.432-44.606 40.835 0 117.367 55.006 197.775 46.942 33.684-1.376 128.244-13.44 188.911-101.404-4.778-3.104-112.83-65.31-111.478-195.033zM419.27 724.008c-7.843 58.846 21.394 120.028 54.807 158.458 37.289 43.294 100.21 75.485 152.163 77.533 6.641-59.966-17.728-120.156-53.756-163.482-36.088-43.262-95.252-76.957-153.214-72.509z" />
<glyph unicode="&#xe909;" glyph-name="copy" d="M96 864v-576h576v576h-576zM0 960h768v-768h-768v768zM928 704h96v-768h-768.303v96h672.303v672z" />
<glyph unicode="&#xe90a;" glyph-name="sort" horiz-adv-x="878" d="M594.005 64.002h-45.399c-15.151 0-27.427 12.283-27.427 27.427v728.131c0 6.059 4.915 10.975 10.975 10.975 3.271 0 6.367-1.459 8.455-3.979l197.994-239.28c3.863-4.669 3.211-11.587-1.459-15.448-1.967-1.627-4.441-2.518-6.994-2.518h-97.739c-6.059 0-10.975-4.915-10.975-10.975v-466.911c0-15.151-12.283-27.427-27.427-27.427zM283.782 831.998h45.399c15.151 0 27.427-12.283 27.427-27.427v-728.131c0-6.059-4.915-10.975-10.975-10.975-3.271 0-6.367 1.459-8.455 3.979l-197.994 239.28c-3.863 4.669-3.211 11.587 1.459 15.448 1.967 1.627 4.441 2.518 6.994 2.518h97.739c6.059 0 10.975 4.915 10.975 10.975v466.911c0 15.151 12.283 27.427 27.427 27.427z" />
<glyph unicode="&#xe90b;" glyph-name="check" horiz-adv-x="1280" d="M1219.828 730.17l-685.352-685.352c-26.386-26.251-60.714-39.444-95.177-39.444s-68.926 13.193-95.177 39.444l-304.646 304.646c-52.637 52.502-52.637 137.717 0 190.353s137.717 52.637 190.353 0l209.469-209.469 590.175 590.175c52.637 52.637 137.717 52.637 190.353 0s52.637-137.717 0-190.353z" />
<glyph unicode="&#xe90c;" glyph-name="warning" d="M512-64c-282.77 0-512 229.23-512 512s229.23 512 512 512c282.77 0 512-229.23 512-512s-229.23-512-512-512zM512 192c28.275 0 51.2 22.968 51.2 51.228s-22.925 51.172-51.2 51.172c-28.275 0-51.2-22.912-51.2-51.172s22.925-51.228 51.2-51.228zM563.2 396.792v256.016c0 28.158-23.037 51.192-51.2 51.192s-51.2-23.034-51.2-51.192v-256.016c0-28.158 23.037-51.192 51.2-51.192s51.2 23.034 51.2 51.192z" />
<glyph unicode="&#xe90d;" glyph-name="arrow" horiz-adv-x="1536" d="M396.84 218.199c-13.963 13.948-21.807 32.873-21.807 52.61s7.845 38.662 21.807 52.61l321.092 321.8c13.249 13.282 31.237 20.748 49.996 20.748s36.747-7.464 49.996-20.748l321.305-321.868c29.015-29.015 29.015-76.061 0-105.078s-76.061-29.015-105.078 0l-266.222 266.647-266.082-266.647c-13.919-13.933-32.807-21.761-52.502-21.761s-38.583 7.828-52.502 21.761v-0.070z" />
<glyph unicode="&#xe90e;" glyph-name="close" d="M984.796 164.434c52.25-52.218 52.275-136.907 0.057-189.157s-136.907-52.275-189.157-0.057l-283.65 283.763-283.763-283.763c-25.028-25.166-59.057-39.316-94.55-39.316s-69.521 14.15-94.55 39.316c-52.245 52.252-52.245 136.962 0 189.213l283.65 283.65-283.65 283.65c-49.007 52.735-47.505 134.794 3.401 185.699s132.964 52.408 185.699 3.401l283.763-283.65 283.65 283.65c33.779 33.779 83.014 46.972 129.158 34.608s82.186-48.406 94.55-94.55c12.364-46.144-0.828-95.378-34.608-129.158l-283.65-283.65 283.65-283.65z" />
<glyph unicode="&#xe90f;" glyph-name="success" d="M512-64c-282.77 0-512 229.23-512 512s229.23 512 512 512c282.77 0 512-229.23 512-512s-229.23-512-512-512zM394.598 484.198c-12.855 13.31-31.891 18.648-49.792 13.962s-31.881-18.665-36.567-36.567c-4.686-17.901 0.652-36.937 13.962-49.792l102.4-102.4c19.994-19.988 52.403-19.988 72.397 0l204.8 204.8c13.31 12.855 18.648 31.891 13.962 49.792s-18.665 31.881-36.567 36.567c-17.901 4.686-36.937-0.652-49.792-13.962l-168.602-168.602-66.202 66.202z" />
<glyph unicode="&#xe910;" glyph-name="error" d="M512-64c-282.77 0-512 229.23-512 512s229.23 512 512 512c282.77 0 512-229.23 512-512s-229.23-512-512-512zM584.408 448l144.815 144.815c19.995 19.995 19.995 52.413 0 72.408s-52.413 19.995-72.408 0l-144.815-144.815-144.815 144.815c-19.995 19.995-52.413 19.995-72.408 0s-19.995-52.413 0-72.408l144.815-144.815-144.815-144.815c-19.995-19.995-19.995-52.413 0-72.408s52.413-19.995 72.408 0l144.815 144.815 144.815-144.815c19.995-19.995 52.413-19.995 72.408 0s19.995 52.413 0 72.408l-144.815 144.815z" />
<glyph unicode="&#xe911;" glyph-name="edit" d="M256 352h512v-96h-512v96zM611.664 512l-67.664 67.651 380.336 380.349 67.664-67.651-380.336-380.349zM128 32h768v480h96v-576h-960v960h512v-96h-416v-768z" />
<glyph unicode="&#xe912;" glyph-name="info" d="M512-64c-282.77 0-512 229.23-512 512s229.23 512 512 512c282.77 0 512-229.23 512-512s-229.23-512-512-512zM512 704c-28.275 0-51.2-22.968-51.2-51.228s22.925-51.172 51.2-51.172c28.275 0 51.2 22.912 51.2 51.172s-22.925 51.228-51.2 51.228zM460.8 499.208v-256.016c0-28.158 23.037-51.192 51.2-51.192s51.2 23.034 51.2 51.192v256.016c0 28.158-23.037 51.192-51.2 51.192s-51.2-23.034-51.2-51.192z" />
<glyph unicode="&#xe913;" glyph-name="delete" horiz-adv-x="896" d="M320 960h256v-96h-256v96zM0 800h896v-96h-896v96zM235.834 32h424.331l60.031 608h96.335l-68.698-704h-599.669l-67.969 704h95.606l60.031-608zM352 576h64v-448h-64v448zM480 576h64v-448h-64v448z" />
<glyph unicode="&#xe914;" glyph-name="add" d="M597.333 533.333h426.667v-170.667h-426.667v-426.667h-170.667v426.667h-426.667v170.667h426.667v426.667h170.667v-426.667z" />
<glyph unicode="&#xe915;" glyph-name="search" d="M784.405 250.541l239.595-236.496-77.108-78.044-240.462 237.352c-74.054-56.965-166.808-90.838-267.478-90.838-242.426 0-438.951 196.432-438.951 438.743s196.525 438.743 438.951 438.743c242.426 0 438.951-196.432 438.951-438.743 0-102.153-34.928-196.152-93.498-270.716zM438.951 192.228c181.844 0 329.237 147.323 329.237 329.029s-147.393 329.029-329.237 329.029c-181.844 0-329.237-147.323-329.237-329.029s147.393-329.029 329.237-329.029z" />
<glyph unicode="&#xe916;" glyph-name="oauth" d="M512-64c-282.77 0-512 229.23-512 512s229.23 512 512 512c282.77 0 512-229.23 512-512s-229.23-512-512-512zM512 4.267c245.067 0 443.733 198.666 443.733 443.733s-198.666 443.733-443.733 443.733c-245.067 0-443.733-198.666-443.733-443.733s198.666-443.733 443.733-443.733zM452.155 484.765l-54.527 54.143-115.308-115.546c-27.628-26.888-43.432-63.962-43.705-102.761s15.009-76.092 42.431-103.542c27.432-27.209 64.493-42.347 103.052-42.129 39.068-0.033 76.631 15.619 104.192 43.465l66.306 67.087-54.382 54.382-67.079-67.339c-17.235-17.234-42.388-23.974-65.963-17.658s-41.989 24.731-48.305 48.305c-6.317 23.575 0.423 48.729 17.681 65.986l115.607 115.607zM648.139 720.882l-8.173 0.219c-39.131 0-76.695-15.649-104.256-43.495l-90.422-91.159 54.082-54.466 91.471 91.471c17.258 17.258 42.412 23.998 65.986 17.681s41.989-24.731 48.305-48.305c6.317-23.575-0.423-48.729-17.681-65.986l-139.742-139.742 54.525-54.141 139.444 139.677c27.63 26.891 43.435 63.964 43.707 102.764s-15.009 76.092-42.431 103.542c-25.472 25.266-59.247 40.123-94.815 41.94z" />
</font>
</defs>
</svg>
