<svg width="144" height="144" viewBox="0 0 144 144" fill="none" xmlns="http://www.w3.org/2000/svg">
<circle cx="72" cy="72" r="72" fill="white" fill-opacity="0.1"/>
<path fill-rule="evenodd" clip-rule="evenodd" d="M42 55H57L62 50H82L87 55H102V95H42V55ZM84.5 73.75C84.5 80.6536 78.9036 86.25 72 86.25C65.0964 86.25 59.5 80.6536 59.5 73.75C59.5 66.8464 65.0964 61.25 72 61.25C78.9036 61.25 84.5 66.8464 84.5 73.75ZM72 82.5C76.8325 82.5 80.75 78.5825 80.75 73.75C80.75 68.9175 76.8325 65 72 65C67.1675 65 63.25 68.9175 63.25 73.75C63.25 78.5825 67.1675 82.5 72 82.5Z" fill="white"/>
</svg>
