<svg width="18" height="18" viewBox="0 0 18 18" fill="none" xmlns="http://www.w3.org/2000/svg">
<path fill-rule="evenodd" clip-rule="evenodd" d="M9 0C4.02933 0 0 4.02933 0 9C0 13.9707 4.02933 18 9 18C13.9707 18 18 13.9707 18 9C18 4.02933 13.9707 0 9 0" fill="#223349"/>
<mask id="mask0_875_36878" style="mask-type:alpha" maskUnits="userSpaceOnUse" x="1" y="1" width="16" height="16">
<path fill-rule="evenodd" clip-rule="evenodd" d="M9 1.44C4.82464 1.44 1.44 4.82464 1.44 9C1.44 13.1754 4.82464 16.56 9 16.56C13.1754 16.56 16.56 13.1754 16.56 9C16.56 4.82464 13.1754 1.44 9 1.44" fill="#F3F3F3"/>
</mask>
<g mask="url(#mask0_875_36878)">
<mask id="mask1_875_36878" style="mask-type:alpha" maskUnits="userSpaceOnUse" x="1" y="0" width="16" height="17">
<path d="M15.4686 0.643101H2.44972C1.65081 0.643101 1.00317 1.29074 1.00317 2.08965V15.1086C1.00317 15.9075 1.65081 16.5551 2.44972 16.5551H15.4686C16.2675 16.5551 16.9152 15.9075 16.9152 15.1086V2.08965C16.9152 1.29074 16.2675 0.643101 15.4686 0.643101Z" fill="#6D86A5"/>
</mask>
<g mask="url(#mask1_875_36878)">
<path d="M11.6153 5.95064C12.2644 5.95064 12.7906 5.42443 12.7906 4.77532C12.7906 4.12621 12.2644 3.6 11.6153 3.6C10.9662 3.6 10.44 4.12621 10.44 4.77532C10.44 5.42443 10.9662 5.95064 11.6153 5.95064Z" fill="#CFD3E9"/>
<rect x="-8" y="17.7279" width="18" height="18" transform="rotate(-45 -8 17.7279)" fill="#CFD3E9"/>
<path opacity="0.5" d="M1 21.7279L13.7279 8.99998L26.4558 21.7279L13.7279 34.4558L1 21.7279Z" fill="#CFD3E9"/>
</g>
</g>
</svg>
