<svg width="60" height="60" viewBox="0 0 60 60" fill="none" xmlns="http://www.w3.org/2000/svg">
<rect width="60" height="60" fill="white"/>
<circle cx="30" cy="30" r="29.5" fill="#E7EBEE" fill-opacity="0.6" stroke="#E7EBEE"/>
<path d="M17.124 38.708C17.124 35.78 17.484 33.416 18.204 31.616C18.924 29.792 20.064 28.436 21.624 27.548C23.208 26.636 25.296 26.108 27.888 25.964V18.296H31.056V25.964C33.456 26.108 35.448 26.624 37.032 27.512C38.64 28.376 39.84 29.708 40.632 31.508C41.424 33.284 41.82 35.648 41.82 38.6V44H38.616V38.672C38.616 36.296 38.328 34.4 37.752 32.984C37.2 31.568 36.36 30.536 35.232 29.888C34.128 29.216 32.736 28.82 31.056 28.7V38.096H27.888V28.7C26.088 28.82 24.624 29.216 23.496 29.888C22.392 30.56 21.588 31.604 21.084 33.02C20.58 34.436 20.328 36.308 20.328 38.636V44H17.124V38.708Z" fill="#383838"/>
</svg>
