<svg width="120" height="120" viewBox="0 0 120 120" fill="none" xmlns="http://www.w3.org/2000/svg">
<g clip-path="url(#clip0)">
<path d="M17.12 87.36C17.12 79.68 18.32 72.76 20.72 66.6C23.12 60.44 27.08 55.48 32.6 51.72C38.2 47.96 45.8 45.88 55.4 45.48V22.32H71.72V45.48C81.48 45.88 89.12 47.8 94.64 51.24C100.16 54.6 104.04 59.32 106.28 65.4C108.6 71.4 109.76 78.64 109.76 87.12V108H92.72V87.36C92.72 81.84 92.28 77.4 91.4 74.04C90.52 70.6 89.2 67.92 87.44 66C85.76 64.08 83.6 62.72 80.96 61.92C78.32 61.04 75.24 60.44 71.72 60.12V87.6H55.4V60.12C52.12 60.44 49.16 61 46.52 61.8C43.96 62.6 41.76 63.96 39.92 65.88C38.08 67.72 36.64 70.36 35.6 73.8C34.64 77.16 34.16 81.6 34.16 87.12V108H17.12V87.36Z" fill="#14181F"/>
</g>
<defs>
<clipPath id="clip0">
<rect width="120" height="120" fill="white"/>
</clipPath>
</defs>
</svg>
