<svg width="30" height="46" viewBox="0 0 30 46" fill="none" xmlns="http://www.w3.org/2000/svg">
<path d="M2.97947 31.708C2.97947 28.78 3.33947 26.416 4.05947 24.616C4.77947 22.792 5.91947 21.436 7.47947 20.548C9.06347 19.636 11.1515 19.108 13.7435 18.964V11.296H16.9115V18.964C19.3115 19.108 21.3035 19.624 22.8875 20.512C24.4955 21.376 25.6955 22.708 26.4875 24.508C27.2795 26.284 27.6755 28.648 27.6755 31.6V37H24.4715V31.672C24.4715 29.296 24.1835 27.4 23.6075 25.984C23.0555 24.568 22.2155 23.536 21.0875 22.888C19.9835 22.216 18.5915 21.82 16.9115 21.7V31.096H13.7435V21.7C11.9435 21.82 10.4795 22.216 9.35147 22.888C8.24747 23.56 7.44347 24.604 6.93947 26.02C6.43547 27.436 6.18347 29.308 6.18347 31.636V37H2.97947V31.708Z" fill="#14181F"/>
</svg>
