<svg width="60" height="60" viewBox="0 0 60 60" fill="none" xmlns="http://www.w3.org/2000/svg">
<rect width="60" height="60" fill="white"/>
<circle cx="30" cy="30" r="29.5" fill="#E7EBEE" fill-opacity="0.6" stroke="#E7EBEE"/>
<path d="M30.072 38.42C26.112 37.808 23.736 35 23.736 31.112C23.736 27.224 26.184 24.38 30.072 23.696V38.42ZM38.28 36.08C36.696 37.52 34.608 38.492 32.124 38.564V23.552C34.32 23.588 36.156 24.38 37.74 25.892L39.432 23.804C37.704 22.148 35.364 20.924 32.124 20.852V16.46H30.072V20.96C24.672 21.572 20.496 25.172 20.496 31.112C20.496 37.052 24.42 40.688 30.072 41.228V45.476H32.124V41.3C34.968 41.156 37.704 40.112 39.792 38.204L38.28 36.08Z" fill="#383838"/>
</svg>
