<svg width="30" height="46" viewBox="0 0 30 46" fill="none" xmlns="http://www.w3.org/2000/svg">
<g clip-path="url(#clip0)">
<path d="M15.072 31.42C11.112 30.808 8.736 28 8.736 24.112C8.736 20.224 11.184 17.38 15.072 16.696V31.42ZM23.28 29.08C21.696 30.52 19.608 31.492 17.124 31.564V16.552C19.32 16.588 21.156 17.38 22.74 18.892L24.432 16.804C22.704 15.148 20.364 13.924 17.124 13.852V9.46H15.072V13.96C9.672 14.572 5.496 18.172 5.496 24.112C5.496 30.052 9.42 33.688 15.072 34.228V38.476H17.124V34.3C19.968 34.156 22.704 33.112 24.792 31.204L23.28 29.08Z" fill="#14181F"/>
</g>
<defs>
<clipPath id="clip0">
<rect width="30" height="46" fill="white"/>
</clipPath>
</defs>
</svg>
