<svg width="120" height="120" viewBox="0 0 120 120" fill="none" xmlns="http://www.w3.org/2000/svg">
<g clip-path="url(#clip0)">
<path d="M58.44 85.2C48.36 82.56 42.6 75.36 42.6 65.4C42.6 55.56 48.12 48.36 58.44 45.72V85.2ZM85.56 79.32C81.12 82.92 75.36 85.92 68.28 86.16V44.64C73.68 44.76 78.72 46.32 83.64 50.64L91.92 39.72C86.4 34.32 78.36 30.6 68.28 30.24V17.04H58.44V30.84C39.48 33.6 25.44 45.84 25.44 65.4C25.44 85.44 38.52 97.8 58.44 100.08V113.4H68.28V100.32C76.8 99.84 85.92 96.84 92.88 90.48L85.56 79.32Z" fill="#14181F"/>
</g>
<defs>
<clipPath id="clip0">
<rect width="120" height="120" fill="white"/>
</clipPath>
</defs>
</svg>
