<svg width="60" height="60" viewBox="0 0 60 60" fill="none" xmlns="http://www.w3.org/2000/svg">
<rect width="60" height="60" fill="white"/>
<circle cx="30" cy="30" r="29.5" fill="#E7EBEE" fill-opacity="0.6" stroke="#E7EBEE"/>
<path d="M25.312 41L21.824 30.664C23.808 29.736 24.576 27.88 24.576 24.712C24.576 19.72 22.656 18.216 19.2 18.216H14.048V41H16.8V31.208H19.296L22.432 41H25.312ZM21.824 24.712C21.824 27.144 21.344 28.776 19.232 28.776H16.8V20.68H19.232C21.344 20.68 21.824 22.312 21.824 24.712ZM37.6345 32.712C37.6345 28.872 37.5065 26.632 36.4505 25.384C35.7145 24.52 34.8185 24.168 33.6985 24.168C33.0265 24.168 32.4185 24.36 31.9065 24.68C31.5865 24.872 31.0425 25.384 30.8825 25.704V24.424H28.3865V47.208H30.9785V39.848C31.2025 40.2 31.5865 40.584 31.9065 40.776C32.4185 41.096 33.0265 41.256 33.6985 41.256C34.9145 41.256 35.7785 40.84 36.4505 40.04C37.5065 38.792 37.6345 36.552 37.6345 32.712ZM35.0425 32.712C35.0425 35.688 35.0105 37.384 34.4025 38.216C34.0825 38.664 33.5385 38.92 32.9625 38.92C32.4505 38.92 31.9705 38.792 31.6185 38.44C31.2025 38.024 30.9785 37.384 30.9785 36.488V28.904C30.9785 28.008 31.2025 27.4 31.6185 26.984C31.9705 26.632 32.4505 26.472 32.9625 26.472C33.5385 26.472 34.0825 26.728 34.4025 27.176C35.0105 28.008 35.0425 29.736 35.0425 32.712ZM49.4335 36.488C49.4335 35.432 49.1775 34.504 48.7295 33.832C48.2495 33.064 47.5135 32.488 46.3935 31.944L44.2815 30.888C43.6095 30.568 43.1295 30.184 42.9055 29.8C42.7135 29.448 42.6175 29.064 42.6175 28.584C42.6175 27.976 42.8095 27.4 43.2255 26.984C43.5775 26.632 44.0575 26.44 44.6655 26.44C45.1775 26.44 45.6895 26.6 46.0735 27.016C46.4895 27.464 46.6815 28.04 46.6815 29H49.2415C49.2415 27.368 48.7615 26.184 47.8975 25.352C47.0975 24.552 45.9775 24.168 44.6655 24.168C43.3855 24.168 42.2335 24.584 41.4015 25.416C40.5695 26.248 40.0255 27.336 40.0255 28.776C40.0255 29.64 40.1855 30.344 40.5375 30.952C40.9535 31.656 41.7215 32.328 42.8095 32.872L44.9535 33.96C45.6255 34.312 46.1055 34.664 46.4255 35.144C46.7135 35.592 46.8415 36.072 46.8415 36.648C46.8415 37.32 46.5855 37.928 46.2015 38.312C45.7855 38.728 45.3055 38.92 44.6335 38.92C44.1215 38.92 43.5455 38.728 43.1615 38.344C42.6815 37.832 42.4575 37.192 42.4575 36.328H39.8975C39.8975 37.832 40.3455 38.984 41.3055 39.976C42.1055 40.808 43.2895 41.256 44.6335 41.256C45.9775 41.256 47.1295 40.872 48.0255 39.944C48.8575 39.112 49.4335 37.96 49.4335 36.488Z" fill="#383838"/>
</svg>
