<svg width="45" height="46" viewBox="0 0 45 46" fill="none" xmlns="http://www.w3.org/2000/svg">
<g clip-path="url(#clip0)">
<path d="M16.8745 34L13.3865 23.664C15.3705 22.736 16.1385 20.88 16.1385 17.712C16.1385 12.72 14.2185 11.216 10.7625 11.216H5.6105V34H8.3625V24.208H10.8585L13.9945 34H16.8745ZM13.3865 17.712C13.3865 20.144 12.9065 21.776 10.7945 21.776H8.3625V13.68H10.7945C12.9065 13.68 13.3865 15.312 13.3865 17.712ZM29.197 25.712C29.197 21.872 29.069 19.632 28.013 18.384C27.277 17.52 26.381 17.168 25.261 17.168C24.589 17.168 23.981 17.36 23.469 17.68C23.149 17.872 22.605 18.384 22.445 18.704V17.424H19.949V40.208H22.541V32.848C22.765 33.2 23.149 33.584 23.469 33.776C23.981 34.096 24.589 34.256 25.261 34.256C26.477 34.256 27.341 33.84 28.013 33.04C29.069 31.792 29.197 29.552 29.197 25.712ZM26.605 25.712C26.605 28.688 26.573 30.384 25.965 31.216C25.645 31.664 25.101 31.92 24.525 31.92C24.013 31.92 23.533 31.792 23.181 31.44C22.765 31.024 22.541 30.384 22.541 29.488V21.904C22.541 21.008 22.765 20.4 23.181 19.984C23.533 19.632 24.013 19.472 24.525 19.472C25.101 19.472 25.645 19.728 25.965 20.176C26.573 21.008 26.605 22.736 26.605 25.712ZM40.996 29.488C40.996 28.432 40.74 27.504 40.292 26.832C39.812 26.064 39.076 25.488 37.956 24.944L35.844 23.888C35.172 23.568 34.692 23.184 34.468 22.8C34.276 22.448 34.18 22.064 34.18 21.584C34.18 20.976 34.372 20.4 34.788 19.984C35.14 19.632 35.62 19.44 36.228 19.44C36.74 19.44 37.252 19.6 37.636 20.016C38.052 20.464 38.244 21.04 38.244 22H40.804C40.804 20.368 40.324 19.184 39.46 18.352C38.66 17.552 37.54 17.168 36.228 17.168C34.948 17.168 33.796 17.584 32.964 18.416C32.132 19.248 31.588 20.336 31.588 21.776C31.588 22.64 31.748 23.344 32.1 23.952C32.516 24.656 33.284 25.328 34.372 25.872L36.516 26.96C37.188 27.312 37.668 27.664 37.988 28.144C38.276 28.592 38.404 29.072 38.404 29.648C38.404 30.32 38.148 30.928 37.764 31.312C37.348 31.728 36.868 31.92 36.196 31.92C35.684 31.92 35.108 31.728 34.724 31.344C34.244 30.832 34.02 30.192 34.02 29.328H31.46C31.46 30.832 31.908 31.984 32.868 32.976C33.668 33.808 34.852 34.256 36.196 34.256C37.54 34.256 38.692 33.872 39.588 32.944C40.42 32.112 40.996 30.96 40.996 29.488Z" fill="#14181F"/>
</g>
<defs>
<clipPath id="clip0">
<rect width="45" height="46" fill="white"/>
</clipPath>
</defs>
</svg>
