<svg width="120" height="120" viewBox="0 0 120 120" fill="none" xmlns="http://www.w3.org/2000/svg">
<path d="M41.768 97L31.086 65.346C37.162 62.504 39.514 56.82 39.514 47.118C39.514 31.83 33.634 27.224 23.05 27.224H7.272V97H15.7V67.012H23.344L32.948 97H41.768ZM31.086 47.118C31.086 54.566 29.616 59.564 23.148 59.564H15.7V34.77H23.148C29.616 34.77 31.086 39.768 31.086 47.118ZM79.5057 71.618C79.5057 59.858 79.1137 52.998 75.8797 49.176C73.6257 46.53 70.8817 45.452 67.4517 45.452C65.3937 45.452 63.5317 46.04 61.9637 47.02C60.9837 47.608 59.3177 49.176 58.8277 50.156V46.236H51.1837V116.012H59.1217V93.472C59.8077 94.55 60.9837 95.726 61.9637 96.314C63.5317 97.294 65.3937 97.784 67.4517 97.784C71.1757 97.784 73.8217 96.51 75.8797 94.06C79.1137 90.238 79.5057 83.378 79.5057 71.618ZM71.5677 71.618C71.5677 80.732 71.4697 85.926 69.6077 88.474C68.6277 89.846 66.9617 90.63 65.1977 90.63C63.6297 90.63 62.1597 90.238 61.0817 89.16C59.8077 87.886 59.1217 85.926 59.1217 83.182V59.956C59.1217 57.212 59.8077 55.35 61.0817 54.076C62.1597 52.998 63.6297 52.508 65.1977 52.508C66.9617 52.508 68.6277 53.292 69.6077 54.664C71.4697 57.212 71.5677 62.504 71.5677 71.618ZM115.64 83.182C115.64 79.948 114.856 77.106 113.484 75.048C112.014 72.696 109.76 70.932 106.33 69.266L99.8621 66.032C97.8041 65.052 96.3341 63.876 95.6481 62.7C95.0601 61.622 94.7661 60.446 94.7661 58.976C94.7661 57.114 95.3541 55.35 96.6281 54.076C97.7061 52.998 99.1761 52.41 101.038 52.41C102.606 52.41 104.174 52.9 105.35 54.174C106.624 55.546 107.212 57.31 107.212 60.25H115.052C115.052 55.252 113.582 51.626 110.936 49.078C108.486 46.628 105.056 45.452 101.038 45.452C97.1181 45.452 93.5901 46.726 91.0421 49.274C88.4941 51.822 86.8281 55.154 86.8281 59.564C86.8281 62.21 87.3181 64.366 88.3961 66.228C89.6701 68.384 92.0221 70.442 95.3541 72.108L101.92 75.44C103.978 76.518 105.448 77.596 106.428 79.066C107.31 80.438 107.702 81.908 107.702 83.672C107.702 85.73 106.918 87.592 105.742 88.768C104.468 90.042 102.998 90.63 100.94 90.63C99.3721 90.63 97.6081 90.042 96.4321 88.866C94.9621 87.298 94.2761 85.338 94.2761 82.692H86.4361C86.4361 87.298 87.8081 90.826 90.7481 93.864C93.1981 96.412 96.8241 97.784 100.94 97.784C105.056 97.784 108.584 96.608 111.328 93.766C113.876 91.218 115.64 87.69 115.64 83.182Z" fill="#14181F"/>
</svg>
