<svg width="60" height="60" viewBox="0 0 60 60" fill="none" xmlns="http://www.w3.org/2000/svg">
<rect width="60" height="60" fill="white"/>
<circle cx="30" cy="30" r="29.5" fill="#E7EBEE" fill-opacity="0.6" stroke="#E7EBEE"/>
<path d="M28.312 41L24.824 30.664C26.808 29.736 27.576 27.88 27.576 24.712C27.576 19.72 25.656 18.216 22.2 18.216H17.048V41H19.8V31.208H22.296L25.432 41H28.312ZM24.824 24.712C24.824 27.144 24.344 28.776 22.232 28.776H19.8V20.68H22.232C24.344 20.68 24.824 22.312 24.824 24.712ZM40.0585 36.488C40.0585 35.432 39.8025 34.504 39.3545 33.832C38.8745 33.064 38.1385 32.488 37.0185 31.944L34.9065 30.888C34.2345 30.568 33.7545 30.184 33.5305 29.8C33.3385 29.448 33.2425 29.064 33.2425 28.584C33.2425 27.976 33.4345 27.4 33.8505 26.984C34.2025 26.632 34.6825 26.44 35.2905 26.44C35.8025 26.44 36.3145 26.6 36.6985 27.016C37.1145 27.464 37.3065 28.04 37.3065 29H39.8665C39.8665 27.368 39.3865 26.184 38.5225 25.352C37.7225 24.552 36.6025 24.168 35.2905 24.168C34.0105 24.168 32.8585 24.584 32.0265 25.416C31.1945 26.248 30.6505 27.336 30.6505 28.776C30.6505 29.64 30.8105 30.344 31.1625 30.952C31.5785 31.656 32.3465 32.328 33.4345 32.872L35.5785 33.96C36.2505 34.312 36.7305 34.664 37.0505 35.144C37.3385 35.592 37.4665 36.072 37.4665 36.648C37.4665 37.32 37.2105 37.928 36.8265 38.312C36.4105 38.728 35.9305 38.92 35.2585 38.92C34.7465 38.92 34.1705 38.728 33.7865 38.344C33.3065 37.832 33.0825 37.192 33.0825 36.328H30.5225C30.5225 37.832 30.9705 38.984 31.9305 39.976C32.7305 40.808 33.9145 41.256 35.2585 41.256C36.6025 41.256 37.7545 40.872 38.6505 39.944C39.4825 39.112 40.0585 37.96 40.0585 36.488ZM46.1185 41V37.832H42.9505V41H46.1185Z" fill="#383838"/>
</svg>
