<svg width="120" height="120" viewBox="0 0 120 120" fill="none" xmlns="http://www.w3.org/2000/svg">
<g clip-path="url(#clip0)">
<path d="M47.92 105L34.84 66.24C42.28 62.76 45.16 55.8 45.16 43.92C45.16 25.2 37.96 19.56 25 19.56H5.68V105H16V68.28H25.36L37.12 105H47.92ZM34.84 43.92C34.84 53.04 33.04 59.16 25.12 59.16H16V28.8H25.12C33.04 28.8 34.84 34.92 34.84 43.92ZM91.9694 88.08C91.9694 84.12 91.0094 80.64 89.3294 78.12C87.5294 75.24 84.7694 73.08 80.5694 71.04L72.6494 67.08C70.1294 65.88 68.3294 64.44 67.4894 63C66.7694 61.68 66.4094 60.24 66.4094 58.44C66.4094 56.16 67.1294 54 68.6894 52.44C70.0094 51.12 71.8094 50.4 74.0894 50.4C76.0094 50.4 77.9294 51 79.3694 52.56C80.9294 54.24 81.6494 56.4 81.6494 60H91.2494C91.2494 53.88 89.4494 49.44 86.2094 46.32C83.2094 43.32 79.0094 41.88 74.0894 41.88C69.2894 41.88 64.9694 43.44 61.8494 46.56C58.7294 49.68 56.6894 53.76 56.6894 59.16C56.6894 62.4 57.2894 65.04 58.6094 67.32C60.1694 69.96 63.0494 72.48 67.1294 74.52L75.1694 78.6C77.6894 79.92 79.4894 81.24 80.6894 83.04C81.7694 84.72 82.2494 86.52 82.2494 88.68C82.2494 91.2 81.2894 93.48 79.8494 94.92C78.2894 96.48 76.4894 97.2 73.9694 97.2C72.0494 97.2 69.8894 96.48 68.4494 95.04C66.6494 93.12 65.8094 90.72 65.8094 87.48H56.2094C56.2094 93.12 57.8894 97.44 61.4894 101.16C64.4894 104.28 68.9294 105.96 73.9694 105.96C79.0094 105.96 83.3294 104.52 86.6894 101.04C89.8094 97.92 91.9694 93.6 91.9694 88.08ZM114.694 105V93.12H102.814V105H114.694Z" fill="#14181F"/>
</g>
<defs>
<clipPath id="clip0">
<rect width="120" height="120" fill="white"/>
</clipPath>
</defs>
</svg>
