<svg width="45" height="46" viewBox="0 0 45 46" fill="none" xmlns="http://www.w3.org/2000/svg">
<path d="M19.3433 34L15.8553 23.664C17.8393 22.736 18.6073 20.88 18.6073 17.712C18.6073 12.72 16.6873 11.216 13.2313 11.216H8.07925V34H10.8313V24.208H13.3273L16.4633 34H19.3433ZM15.8553 17.712C15.8553 20.144 15.3753 21.776 13.2633 21.776H10.8313V13.68H13.2633C15.3753 13.68 15.8553 15.312 15.8553 17.712ZM31.0898 29.488C31.0898 28.432 30.8338 27.504 30.3858 26.832C29.9058 26.064 29.1698 25.488 28.0498 24.944L25.9378 23.888C25.2658 23.568 24.7858 23.184 24.5618 22.8C24.3698 22.448 24.2738 22.064 24.2738 21.584C24.2738 20.976 24.4658 20.4 24.8818 19.984C25.2338 19.632 25.7138 19.44 26.3218 19.44C26.8338 19.44 27.3458 19.6 27.7298 20.016C28.1458 20.464 28.3378 21.04 28.3378 22H30.8978C30.8978 20.368 30.4178 19.184 29.5538 18.352C28.7538 17.552 27.6338 17.168 26.3218 17.168C25.0418 17.168 23.8898 17.584 23.0578 18.416C22.2258 19.248 21.6818 20.336 21.6818 21.776C21.6818 22.64 21.8418 23.344 22.1938 23.952C22.6098 24.656 23.3778 25.328 24.4658 25.872L26.6098 26.96C27.2818 27.312 27.7618 27.664 28.0818 28.144C28.3698 28.592 28.4978 29.072 28.4978 29.648C28.4978 30.32 28.2418 30.928 27.8578 31.312C27.4418 31.728 26.9618 31.92 26.2898 31.92C25.7778 31.92 25.2018 31.728 24.8177 31.344C24.3378 30.832 24.1138 30.192 24.1138 29.328H21.5538C21.5538 30.832 22.0018 31.984 22.9618 32.976C23.7618 33.808 24.9458 34.256 26.2898 34.256C27.6338 34.256 28.7858 33.872 29.6818 32.944C30.5138 32.112 31.0898 30.96 31.0898 29.488ZM37.1498 34V30.832H33.9818V34H37.1498Z" fill="#14181F"/>
</svg>
