<svg width="50" height="50" viewBox="0 0 50 50" fill="none" xmlns="http://www.w3.org/2000/svg">
<path fill-rule="evenodd" clip-rule="evenodd" d="M25 0C11.1926 0 0 11.1926 0 25C0 38.8074 11.1926 50 25 50C38.8074 50 50 38.8074 50 25C50 11.1926 38.8074 0 25 0Z" fill="#EDEDED"/>
<mask id="mask0" mask-type="alpha" maskUnits="userSpaceOnUse" x="4" y="4" width="42" height="42">
<path fill-rule="evenodd" clip-rule="evenodd" d="M25 4C13.4018 4 4 13.4018 4 25C4 36.5982 13.4018 46 25 46C36.5982 46 46 36.5982 46 25C46 13.4018 36.5982 4 25 4Z" fill="#F3F3F3"/>
</mask>
<g mask="url(#mask0)">
<mask id="mask1" mask-type="alpha" maskUnits="userSpaceOnUse" x="-1" y="-2" width="51" height="51">
<path d="M43.024 -1.22729H6.74872C2.89597 -1.22729 -0.227295 1.89597 -0.227295 5.74872V42.024C-0.227295 45.8767 2.89597 49 6.74872 49H43.024C46.8767 49 50 45.8767 50 42.024V5.74872C50 1.89597 46.8767 -1.22729 43.024 -1.22729Z" fill="white"/>
</mask>
<g mask="url(#mask1)">
<mask id="mask2" mask-type="alpha" maskUnits="userSpaceOnUse" x="2" y="1" width="45" height="45">
<path d="M42.9684 1.78638H6.8048C4.58562 1.78638 2.78662 3.58538 2.78662 5.80456V41.9682C2.78662 44.1874 4.58562 45.9864 6.8048 45.9864H42.9684C45.1876 45.9864 46.9866 44.1874 46.9866 41.9682V5.80456C46.9866 3.58538 45.1876 1.78638 42.9684 1.78638Z" fill="white"/>
</mask>
<g mask="url(#mask2)">
<path d="M32.2648 16.5295C34.0679 16.5295 35.5295 15.0679 35.5295 13.2648C35.5295 11.4617 34.0679 10 32.2648 10C30.4617 10 29 11.4617 29 13.2648C29 15.0679 30.4617 16.5295 32.2648 16.5295Z" fill="white"/>
<path opacity="0.5" d="M62.2002 48.7131L41.2457 27.7586C39.2842 25.7971 36.104 25.7971 34.1425 27.7586L13.188 48.7131C11.2265 50.6746 11.2265 53.8548 13.188 55.8163L34.1425 76.7708C36.104 78.7323 39.2842 78.7323 41.2457 76.7708L62.2002 55.8163C64.1617 53.8548 64.1617 50.6746 62.2002 48.7131Z" fill="white"/>
<path d="M43.6628 51.2707L13.119 20.7269C11.1575 18.7654 7.97728 18.7654 6.01578 20.7269L-24.528 51.2707C-26.4895 53.2322 -26.4895 56.4124 -24.528 58.3739L6.01578 88.9177C7.97727 90.8792 11.1575 90.8792 13.119 88.9177L43.6628 58.3739C45.6243 56.4124 45.6243 53.2322 43.6628 51.2707Z" fill="white"/>
</g>
</g>
</g>
</svg>
