<svg width="60" height="60" viewBox="0 0 60 60" fill="none" xmlns="http://www.w3.org/2000/svg">
<rect width="60" height="60" fill="white"/>
<circle cx="30" cy="30" r="29.5" fill="#E7EBEE" fill-opacity="0.6" stroke="#E7EBEE"/>
<path d="M22.168 44V34.748H19.36V32.444H22.168V29.492H19.36V27.188H22.168V18.296H25.912L29.332 27.188H33.58V18.296H36.424V27.188H39.232V29.492H36.424V32.444H39.232V34.748H36.424V44H32.644L29.224 34.748H24.976V44H22.168ZM24.904 27.188H26.416L24.904 22.724H24.76L24.904 27.188ZM24.976 32.444H28.36L27.28 29.492H24.904L24.976 32.444ZM31.24 32.444H33.652L33.58 29.492H30.16L31.24 32.444ZM33.58 38.924H33.724L33.616 34.748H32.104L33.58 38.924Z" fill="#383838"/>
</svg>
