<svg width="120" height="120" viewBox="0 0 120 120" fill="none" xmlns="http://www.w3.org/2000/svg">
<g clip-path="url(#clip0)">
<path d="M34.16 108V78.36H27.2V69.48H34.16V60.84H27.2V51.96H34.16V22.32H53L62.36 51.96H73.28V22.32H86.6V51.96H93.44V60.84H86.6V69.48H93.44V78.36H86.6V108H67.64L58.04 78.36H47.48V108H34.16ZM47 51.96H50.36L46.88 40.44H46.4L47 51.96ZM47.48 69.48H55.4L52.76 60.84H47.24L47.48 69.48ZM68 69.48H73.52L73.28 60.84H65.24L68 69.48ZM73.64 89.28H74.24L73.76 78.36H70.52L73.64 89.28Z" fill="#14181F"/>
</g>
<defs>
<clipPath id="clip0">
<rect width="120" height="120" fill="white"/>
</clipPath>
</defs>
</svg>
