<svg width="30" height="46" viewBox="0 0 30 46" fill="none" xmlns="http://www.w3.org/2000/svg">
<path d="M8.56644 37V27.748H5.75844V25.444H8.56644V22.492H5.75844V20.188H8.56644V11.296H12.3104L15.7304 20.188H19.9784V11.296H22.8224V20.188H25.6304V22.492H22.8224V25.444H25.6304V27.748H22.8224V37H19.0424L15.6224 27.748H11.3744V37H8.56644ZM11.3024 20.188H12.8144L11.3024 15.724H11.1584L11.3024 20.188ZM11.3744 25.444H14.7584L13.6784 22.492H11.3024L11.3744 25.444ZM17.6384 25.444H20.0504L19.9784 22.492H16.5584L17.6384 25.444ZM19.9784 31.924H20.1224L20.0144 27.748H18.5024L19.9784 31.924Z" fill="#14181F"/>
</svg>
