<svg width="60" height="60" viewBox="0 0 60 60" fill="none" xmlns="http://www.w3.org/2000/svg">
<rect width="60" height="60" fill="white"/>
<circle cx="30" cy="30" r="29.5" fill="#E7EBEE" fill-opacity="0.6" stroke="#E7EBEE"/>
<path d="M28.108 18.296C30.508 18.296 32.392 18.74 33.76 19.628C35.128 20.516 36.052 21.776 36.532 23.408H39.232V25.352H36.892C36.916 25.568 36.928 25.784 36.928 26C36.952 26.216 36.964 26.432 36.964 26.648C36.964 26.96 36.952 27.284 36.928 27.62C36.904 27.932 36.868 28.244 36.82 28.556H39.232V30.5H36.316C35.764 31.964 34.78 33.188 33.364 34.172C31.972 35.132 30.016 35.612 27.496 35.612H25.48V44H22.492V30.5H19.36V28.556H22.492V25.352H19.36V23.408H22.492V18.296H28.108ZM28 20.96H25.48V23.408H33.076C32.212 21.776 30.52 20.96 28 20.96ZM33.688 25.352H25.48V28.556H33.652C33.7 28.292 33.736 28.016 33.76 27.728C33.784 27.416 33.796 27.104 33.796 26.792C33.796 26.288 33.76 25.808 33.688 25.352ZM32.968 30.5H25.48V32.948H27.316C28.732 32.948 29.908 32.756 30.844 32.372C31.78 31.988 32.488 31.364 32.968 30.5Z" fill="#383838"/>
</svg>
