<svg width="30" height="46" viewBox="0 0 30 46" fill="none" xmlns="http://www.w3.org/2000/svg">
<path d="M14.5064 11.296C16.9064 11.296 18.7904 11.74 20.1584 12.628C21.5264 13.516 22.4504 14.776 22.9304 16.408H25.6304V18.352H23.2904C23.3144 18.568 23.3264 18.784 23.3264 19C23.3504 19.216 23.3624 19.432 23.3624 19.648C23.3624 19.96 23.3504 20.284 23.3264 20.62C23.3024 20.932 23.2664 21.244 23.2184 21.556H25.6304V23.5H22.7144C22.1624 24.964 21.1784 26.188 19.7624 27.172C18.3704 28.132 16.4144 28.612 13.8944 28.612H11.8784V37H8.89044V23.5H5.75844V21.556H8.89044V18.352H5.75844V16.408H8.89044V11.296H14.5064ZM14.3984 13.96H11.8784V16.408H19.4744C18.6104 14.776 16.9184 13.96 14.3984 13.96ZM20.0864 18.352H11.8784V21.556H20.0504C20.0984 21.292 20.1344 21.016 20.1584 20.728C20.1824 20.416 20.1944 20.104 20.1944 19.792C20.1944 19.288 20.1584 18.808 20.0864 18.352ZM19.3664 23.5H11.8784V25.948H13.7144C15.1304 25.948 16.3064 25.756 17.2424 25.372C18.1784 24.988 18.8864 24.364 19.3664 23.5Z" fill="#14181F"/>
</svg>
