<svg width="120" height="120" viewBox="0 0 120 120" fill="none" xmlns="http://www.w3.org/2000/svg">
<g clip-path="url(#clip0)">
<path d="M59.12 22.32C67.2 22.32 73.52 24.04 78.08 27.48C82.64 30.84 85.64 35.6 87.08 41.76H93.44V50.04H88.16C88.24 50.52 88.28 51 88.28 51.48C88.28 51.88 88.28 52.28 88.28 52.68C88.28 53.48 88.24 54.28 88.16 55.08C88.16 55.8 88.12 56.48 88.04 57.12H93.44V65.4H86.36C84.52 71 81.04 75.68 75.92 79.44C70.88 83.12 63.64 84.96 54.2 84.96H51.92V108H34.04V65.4H27.2V57.12H34.04V50.04H27.2V41.76H34.04V22.32H59.12ZM58.28 36.72H51.92V41.76H68.36C66.52 38.4 63.16 36.72 58.28 36.72ZM70.28 50.04H51.92V57.12H70.28C70.36 56.48 70.4 55.88 70.4 55.32C70.4 54.68 70.4 54 70.4 53.28C70.4 52.72 70.4 52.2 70.4 51.72C70.4 51.16 70.36 50.6 70.28 50.04ZM67.64 65.4H51.92V70.56H53.84C57.12 70.56 59.92 70.16 62.24 69.36C64.56 68.56 66.36 67.24 67.64 65.4Z" fill="#14181F"/>
</g>
<defs>
<clipPath id="clip0">
<rect width="120" height="120" fill="white"/>
</clipPath>
</defs>
</svg>
