<svg width="60" height="60" viewBox="0 0 60 60" fill="none" xmlns="http://www.w3.org/2000/svg">
<path d="M32.032 42L26.128 30.66C29.008 29.868 31.24 27.528 31.24 23.856C31.24 19.5 28.144 16.368 23.284 16.368H13.348V42H17.236V31.2H22.096L27.496 42H32.032ZM27.352 23.892C27.352 26.412 25.588 27.888 22.996 27.888H17.236V19.86H22.996C25.588 19.86 27.352 21.372 27.352 23.892ZM50.0058 36.42C50.0058 33.18 47.9898 31.56 44.5698 31.272L41.6898 31.02C39.7458 30.84 39.1698 30.012 39.1698 28.932C39.1698 27.564 40.2858 26.592 42.4818 26.592C44.2098 26.592 45.8298 26.952 46.9818 27.924L49.2858 25.584C47.5938 24.108 45.2538 23.532 42.5178 23.532C38.7018 23.532 35.6418 25.548 35.6418 29.112C35.6418 32.316 37.6218 33.864 41.0418 34.152L43.9578 34.404C45.7218 34.548 46.4058 35.34 46.4058 36.564C46.4058 38.292 44.6418 39.084 42.4098 39.084C40.6098 39.084 38.6298 38.688 37.1538 37.176L34.7418 39.588C36.9018 41.712 39.4218 42.216 42.4098 42.216C46.7658 42.216 50.0058 40.236 50.0058 36.42Z" fill="#383838"/>
</svg>
