<svg width="30" height="46" viewBox="0 0 30 46" fill="none" xmlns="http://www.w3.org/2000/svg">
<path d="M15.1379 32L11.0813 24.2084C13.0601 23.6643 14.5937 22.0565 14.5937 19.5335C14.5937 16.5406 12.4665 14.3886 9.12725 14.3886H2.30036V32H4.97175V24.5795H8.31099L12.0213 32H15.1379ZM11.9223 19.5583C11.9223 21.2897 10.7103 22.3038 8.92937 22.3038H4.97175V16.7879H8.92937C10.7103 16.7879 11.9223 17.8268 11.9223 19.5583ZM27.4874 28.1661C27.4874 25.9399 26.1023 24.8268 23.7524 24.6289L21.7736 24.4558C20.4379 24.3321 20.0422 23.7632 20.0422 23.0212C20.0422 22.0812 20.809 21.4134 22.3178 21.4134C23.5051 21.4134 24.6182 21.6607 25.4097 22.3286L26.9927 20.7208C25.8302 19.7067 24.2224 19.3109 22.3425 19.3109C19.7206 19.3109 17.6181 20.6961 17.6181 23.1448C17.6181 25.3463 18.9786 26.4099 21.3284 26.6078L23.3319 26.7809C24.544 26.8798 25.0139 27.424 25.0139 28.265C25.0139 29.4523 23.8019 29.9965 22.2683 29.9965C21.0316 29.9965 19.6712 29.7244 18.657 28.6855L16.9998 30.3427C18.4839 31.8021 20.2153 32.1484 22.2683 32.1484C25.2613 32.1484 27.4874 30.788 27.4874 28.1661Z" fill="#14181F"/>
<path d="M15.1379 32V32.3864H15.7747L15.4806 31.8216L15.1379 32ZM11.0813 24.2084L10.9789 23.8359L10.5177 23.9627L10.7386 24.3869L11.0813 24.2084ZM2.30036 14.3886V14.0022H1.91397V14.3886H2.30036ZM2.30036 32H1.91397V32.3864H2.30036V32ZM4.97175 32V32.3864H5.35814V32H4.97175ZM4.97175 24.5795V24.1931H4.58536V24.5795H4.97175ZM8.31099 24.5795L8.65659 24.4067L8.54979 24.1931H8.31099V24.5795ZM12.0213 32L11.6757 32.1728L11.7824 32.3864H12.0213V32ZM4.97175 22.3038H4.58536V22.6902H4.97175V22.3038ZM4.97175 16.7879V16.4015H4.58536V16.7879H4.97175ZM15.4806 31.8216L11.424 24.03L10.7386 24.3869L14.7952 32.1784L15.4806 31.8216ZM11.1838 24.581C13.3141 23.9952 14.9801 22.2466 14.9801 19.5335H14.2073C14.2073 21.8664 12.8061 23.3334 10.9789 23.8359L11.1838 24.581ZM14.9801 19.5335C14.9801 17.9426 14.4128 16.5521 13.3804 15.5601C12.3488 14.5688 10.8811 14.0022 9.12725 14.0022V14.775C10.7126 14.775 11.9782 15.2844 12.845 16.1173C13.711 16.9495 14.2073 18.1315 14.2073 19.5335H14.9801ZM9.12725 14.0022H2.30036V14.775H9.12725V14.0022ZM1.91397 14.3886V32H2.68675V14.3886H1.91397ZM2.30036 32.3864H4.97175V31.6136H2.30036V32.3864ZM5.35814 32V24.5795H4.58536V32H5.35814ZM4.97175 24.9659H8.31099V24.1931H4.97175V24.9659ZM7.96539 24.7523L11.6757 32.1728L12.3669 31.8272L8.65659 24.4067L7.96539 24.7523ZM12.0213 32.3864H15.1379V31.6136H12.0213V32.3864ZM11.5359 19.5583C11.5359 20.3284 11.2696 20.9047 10.8361 21.2923C10.3973 21.6846 9.7487 21.9175 8.92937 21.9175V22.6902C9.89096 22.6902 10.7388 22.416 11.3512 21.8684C11.969 21.316 12.3087 20.5195 12.3087 19.5583H11.5359ZM8.92937 21.9175H4.97175V22.6902H8.92937V21.9175ZM5.35814 22.3038V16.7879H4.58536V22.3038H5.35814ZM4.97175 17.1743H8.92937V16.4015H4.97175V17.1743ZM8.92937 17.1743C9.74635 17.1743 10.3947 17.412 10.8343 17.8102C11.2693 18.2042 11.5359 18.7877 11.5359 19.5583H12.3087C12.3087 18.5973 11.9693 17.7957 11.3531 17.2374C10.7414 16.6833 9.89331 16.4015 8.92937 16.4015V17.1743ZM23.7524 24.6289L23.7188 25.0139L23.72 25.014L23.7524 24.6289ZM21.7736 24.4558L21.738 24.8405L21.74 24.8407L21.7736 24.4558ZM25.4097 22.3286L25.1605 22.6239L25.434 22.8546L25.685 22.5997L25.4097 22.3286ZM26.9927 20.7208L27.2681 20.9919L27.556 20.6994L27.2467 20.4296L26.9927 20.7208ZM21.3284 26.6078L21.3617 26.2228L21.3608 26.2227L21.3284 26.6078ZM23.3319 26.7809L23.2987 27.1659L23.3005 27.166L23.3319 26.7809ZM18.657 28.6855L18.9335 28.4156L18.6603 28.1357L18.3838 28.4123L18.657 28.6855ZM16.9998 30.3427L16.7265 30.0695L16.451 30.3451L16.7289 30.6183L16.9998 30.3427ZM27.8738 28.1661C27.8738 26.9673 27.4973 26.0197 26.7609 25.3509C26.0351 24.6917 25.0073 24.3469 23.7849 24.2439L23.72 25.014C24.8475 25.1089 25.6871 25.4195 26.2414 25.9229C26.785 26.4167 27.1011 27.1386 27.1011 28.1661H27.8738ZM23.7861 24.244L21.8073 24.0709L21.74 24.8407L23.7188 25.0139L23.7861 24.244ZM21.8093 24.0711C21.1834 24.0131 20.8492 23.8561 20.6719 23.6891C20.5061 23.5329 20.4286 23.3212 20.4286 23.0212H19.6558C19.6558 23.4631 19.7761 23.907 20.1421 24.2516C20.4966 24.5856 21.0281 24.7748 21.738 24.8405L21.8093 24.0711ZM20.4286 23.0212C20.4286 22.668 20.5668 22.3828 20.8456 22.1742C21.137 21.9562 21.6142 21.7998 22.3178 21.7998V21.027C21.5125 21.027 20.8519 21.2044 20.3827 21.5554C19.901 21.9157 19.6558 22.4344 19.6558 23.0212H20.4286ZM22.3178 21.7998C23.463 21.7998 24.4688 22.0402 25.1605 22.6239L25.6589 22.0333C24.7676 21.2812 23.5472 21.027 22.3178 21.027V21.7998ZM25.685 22.5997L27.2681 20.9919L26.7174 20.4497L25.1344 22.0575L25.685 22.5997ZM27.2467 20.4296C25.985 19.3289 24.2686 18.9245 22.3425 18.9245V19.6973C24.1762 19.6973 25.6754 20.0844 26.7387 21.012L27.2467 20.4296ZM22.3425 18.9245C20.9683 18.9245 19.6985 19.287 18.7625 20.0026C17.8163 20.7259 17.2318 21.7965 17.2318 23.1448H18.0045C18.0045 22.0444 18.4712 21.198 19.2318 20.6165C20.0025 20.0274 21.0949 19.6973 22.3425 19.6973V18.9245ZM17.2318 23.1448C17.2318 24.3308 17.602 25.2617 18.3348 25.9159C19.0554 26.5591 20.0772 26.8901 21.296 26.9928L21.3608 26.2227C20.2298 26.1275 19.3965 25.8278 18.8494 25.3394C18.3145 24.8619 18.0045 24.1603 18.0045 23.1448H17.2318ZM21.2951 26.9927L23.2987 27.1659L23.3652 26.3959L21.3617 26.2228L21.2951 26.9927ZM23.3005 27.166C23.8607 27.2117 24.1821 27.3559 24.3624 27.5259C24.5332 27.6869 24.6275 27.9187 24.6275 28.265H25.4003C25.4003 27.7704 25.2597 27.3096 24.8925 26.9635C24.5348 26.6264 24.0152 26.449 23.3634 26.3958L23.3005 27.166ZM24.6275 28.265C24.6275 28.6982 24.419 29.0137 24.0236 29.241C23.6095 29.4791 22.9984 29.6101 22.2683 29.6101V30.3828C23.0719 30.3828 23.8336 30.2417 24.4088 29.9109C25.0029 29.5694 25.4003 29.0191 25.4003 28.265H24.6275ZM22.2683 29.6101C21.0797 29.6101 19.8434 29.3477 18.9335 28.4156L18.3805 28.9554C19.4989 30.101 20.9834 30.3828 22.2683 30.3828V29.6101ZM18.3838 28.4123L16.7265 30.0695L17.273 30.616L18.9302 28.9587L18.3838 28.4123ZM16.7289 30.6183C18.3171 32.18 20.1697 32.5348 22.2683 32.5348V31.762C20.261 31.762 18.6507 31.4243 17.2707 30.0672L16.7289 30.6183ZM22.2683 32.5348C23.8167 32.5348 25.209 32.1838 26.2255 31.4544C27.2567 30.7144 27.8738 29.6022 27.8738 28.1661H27.1011C27.1011 29.3518 26.6051 30.2308 25.775 30.8265C24.9301 31.4328 23.713 31.762 22.2683 31.762V32.5348Z" fill="#14181F"/>
</svg>
