<svg width="60" height="60" viewBox="0 0 60 60" fill="none" xmlns="http://www.w3.org/2000/svg">
<rect width="60" height="60" fill="white"/>
<circle cx="30" cy="30" r="29.5" fill="#E7EBEE" fill-opacity="0.6" stroke="#E7EBEE"/>
<path d="M24.492 44V39.104H21.36V36.764H24.492V33.56H21.36V30.824H24.492V18.296H31.26C34.404 18.296 36.732 18.932 38.244 20.204C39.78 21.476 40.548 23.324 40.548 25.748C40.548 28.196 39.72 30.116 38.064 31.508C36.408 32.876 33.972 33.56 30.756 33.56H27.732V36.764H33.672V39.104H27.732V44H24.492ZM30.288 30.824C32.472 30.824 34.164 30.464 35.364 29.744C36.588 29.024 37.2 27.728 37.2 25.856C37.2 24.224 36.696 23.012 35.688 22.22C34.68 21.428 33.108 21.032 30.972 21.032H27.732V30.824H30.288Z" fill="#383838"/>
</svg>
