<svg width="120" height="120" viewBox="0 0 120 120" fill="none" xmlns="http://www.w3.org/2000/svg">
<g clip-path="url(#clip0)">
<path d="M35.8 108V95.16H26.2V83.52H35.8V74.16H26.2V59.28H35.8V22.32H63.16C74.2 22.32 82.24 24.56 87.28 29.04C92.4 33.52 94.96 39.68 94.96 47.52C94.96 52.16 93.92 56.52 91.84 60.6C89.76 64.68 86.28 67.96 81.4 70.44C76.6 72.92 70.04 74.16 61.72 74.16H53.92V83.52H72.4V95.16H53.92V108H35.8ZM59.92 59.28C65.04 59.28 69.08 58.4 72.04 56.64C75.08 54.88 76.6 52.04 76.6 48.12C76.6 40.84 71.8 37.2 62.2 37.2H53.92V59.28H59.92Z" fill="#14181F"/>
</g>
<defs>
<clipPath id="clip0">
<rect width="120" height="120" fill="white"/>
</clipPath>
</defs>
</svg>
