<svg width="30" height="46" viewBox="0 0 30 46" fill="none" xmlns="http://www.w3.org/2000/svg">
<path d="M8.53888 37V32.104H5.40688V29.764H8.53888V26.56H5.40688V23.824H8.53888V11.296H15.3069C18.4509 11.296 20.7789 11.932 22.2909 13.204C23.8269 14.476 24.5949 16.324 24.5949 18.748C24.5949 21.196 23.7669 23.116 22.1109 24.508C20.4549 25.876 18.0189 26.56 14.8029 26.56H11.7789V29.764H17.7189V32.104H11.7789V37H8.53888ZM14.3349 23.824C16.5189 23.824 18.2109 23.464 19.4109 22.744C20.6349 22.024 21.2469 20.728 21.2469 18.856C21.2469 17.224 20.7429 16.012 19.7349 15.22C18.7269 14.428 17.1549 14.032 15.0189 14.032H11.7789V23.824H14.3349Z" fill="#14181F"/>
</svg>
