<svg width="60" height="60" viewBox="0 0 60 60" fill="none" xmlns="http://www.w3.org/2000/svg">
<rect width="60" height="60" fill="white"/>
<circle cx="30" cy="30" r="29.5" fill="#E7EBEE" fill-opacity="0.6" stroke="#E7EBEE"/>
<path d="M28.5498 19.5169L27.7342 21.7006V34.9345C27.7342 36.1622 27.0458 37.3769 25.6689 38.5784C24.4323 39.6658 23.1124 40.2096 21.7092 40.2096C21.0427 40.2096 20.4332 40.0649 19.8807 39.7755C19.3282 39.4948 18.8502 39.1002 18.4468 38.5915C18.0522 38.0916 17.7452 37.4909 17.526 36.7893C17.3155 36.0877 17.2103 35.3203 17.2103 34.4872C17.2103 33.2594 17.3944 32.0491 17.7628 30.8564C17.9382 30.3039 18.0916 29.9093 18.2232 29.6725C18.3547 29.4357 18.46 29.3173 18.5389 29.3173C18.5389 29.4839 18.5214 29.7339 18.4863 30.0671C18.46 30.3916 18.4205 30.738 18.3679 31.1064C18.324 31.4659 18.2846 31.8123 18.2495 32.1456C18.2144 32.4789 18.1969 32.7332 18.1969 32.9086C18.1969 34.6363 18.6222 35.8991 19.4729 36.6972C20.3937 37.5654 21.3014 37.9996 22.196 37.9996C22.5555 37.9996 22.9283 37.9031 23.3141 37.7101C23.7088 37.526 24.0815 37.2848 24.4323 36.9866C24.7831 36.6884 25.0988 36.3464 25.3795 35.9605C25.6689 35.5659 25.8925 35.1625 26.0504 34.7503V20.5429L25.6294 17.7541L27.3922 15.5046L27.5632 18.2145L28.5498 19.5169ZM38.7975 32.4219C38.7975 33.9391 38.6265 34.6977 38.2845 34.6977H33.0751V34.6845C32.3472 34.6845 31.764 34.588 31.3255 34.3951C30.887 34.1934 30.5625 33.8821 30.352 33.4611C30.1503 33.0314 30.0495 32.2772 30.0495 31.1984V17.6883L31.6281 15.2152V31.1984C31.6281 31.8387 31.8649 32.1588 32.3384 32.1588H37.1926C37.2891 32.1675 37.3373 32.0535 37.3373 31.8167C37.3373 31.6413 37.2935 31.3914 37.2058 31.0669C37.1181 30.7336 37.0128 30.4048 36.89 30.0803C36.7673 29.7558 36.6357 29.4752 36.4954 29.2384C36.3551 28.9928 36.2411 28.87 36.1534 28.87L37.0742 26.1206C37.5039 26.3574 37.9074 27.3134 38.2845 28.9884C38.6265 30.4705 38.7975 31.615 38.7975 32.4219ZM44.0332 33.3822C44.0332 35.6185 43.3228 37.526 41.9021 39.1046C40.6743 40.4727 39.4947 41.1567 38.3634 41.1567C36.9339 41.1567 35.5219 39.964 34.1275 37.5786C34.2415 37.7189 34.4038 37.8548 34.6142 37.9864C34.8949 38.1355 35.2413 38.2846 35.6535 38.4337C36.0043 38.5564 36.3331 38.6441 36.6401 38.6968C36.947 38.7582 37.2277 38.7888 37.482 38.7888C39.7534 38.7888 41.5381 37.2541 42.8361 34.1846C42.915 33.9566 42.9545 33.7374 42.9545 33.5269C42.9545 32.3254 42.2309 31.102 40.7839 29.8566L41.7574 27.3835C42.0994 27.6466 42.4063 27.993 42.6782 28.4228C42.9589 28.8525 43.2 29.3348 43.4017 29.8698C43.6034 30.4048 43.7569 30.9748 43.8622 31.5799C43.9762 32.1763 44.0332 32.777 44.0332 33.3822ZM32.3779 45.0901L33.1277 43.1563L35.2588 44.8007L34.4169 46.695L32.3779 45.0901ZM37.3373 46.4582L35.2588 44.8007L36.0481 43.0379L38.1661 44.6165L37.3373 46.4582ZM34.088 38.1574C34.0705 38.1311 34.0573 38.1092 34.0486 38.0916C34.0661 38.1092 34.0793 38.1311 34.088 38.1574Z" fill="#383838"/>
<path d="M28.5498 19.5169L28.9756 19.6759L29.0631 19.4417L28.9121 19.2424L28.5498 19.5169ZM27.7342 21.7006L27.3084 21.5415L27.2796 21.6185V21.7006H27.7342ZM25.6689 38.5784L25.37 38.2359L25.3687 38.237L25.6689 38.5784ZM19.8807 39.7755L20.0916 39.3728L20.0866 39.3702L19.8807 39.7755ZM18.4468 38.5915L18.09 38.8732L18.0907 38.874L18.4468 38.5915ZM17.526 36.7893L17.0906 36.9199L17.0921 36.9249L17.526 36.7893ZM17.7628 30.8564L17.3295 30.7189L17.3284 30.7223L17.7628 30.8564ZM18.2232 29.6725L18.6205 29.8932L18.6205 29.8932L18.2232 29.6725ZM18.5389 29.3173H18.9935V28.8627H18.5389V29.3173ZM18.4863 30.0671L18.0341 30.0195L18.0332 30.0304L18.4863 30.0671ZM18.3679 31.1064L17.9178 31.0421L17.9167 31.0513L18.3679 31.1064ZM18.2495 32.1456L18.7016 32.1932L18.7016 32.1932L18.2495 32.1456ZM19.4729 36.6972L19.7847 36.3665L19.7839 36.3657L19.4729 36.6972ZM23.3141 37.7101L23.1218 37.2981L23.1109 37.3036L23.3141 37.7101ZM24.4323 36.9866L24.7267 37.333L24.7267 37.333L24.4323 36.9866ZM25.3795 35.9605L25.0129 35.6917L25.0119 35.6932L25.3795 35.9605ZM26.0504 34.7503L26.4749 34.9129L26.5049 34.8343V34.7503H26.0504ZM26.0504 20.5429H26.5049V20.5088L26.4998 20.4751L26.0504 20.5429ZM25.6294 17.7541L25.2716 17.4737L25.1507 17.6281L25.1799 17.8219L25.6294 17.7541ZM27.3922 15.5046L27.8458 15.476L27.7707 14.2847L27.0344 15.2242L27.3922 15.5046ZM27.5632 18.2145L27.1095 18.2432L27.1182 18.3798L27.2009 18.489L27.5632 18.2145ZM33.0751 34.6977H32.6206V35.1522H33.0751V34.6977ZM33.0751 34.6845H33.5297V34.2299H33.0751V34.6845ZM31.3255 34.3951L31.1355 34.8081L31.1424 34.8112L31.3255 34.3951ZM30.352 33.4611L29.9404 33.6543L29.9455 33.6644L30.352 33.4611ZM30.0495 17.6883L29.6663 17.4438L29.5949 17.5556V17.6883H30.0495ZM31.6281 15.2152H32.0826V13.6582L31.2449 14.9706L31.6281 15.2152ZM37.1926 32.1588L37.2338 31.7061L37.2132 31.7042H37.1926V32.1588ZM37.2058 31.0669L36.7662 31.1826L36.7669 31.1855L37.2058 31.0669ZM36.4954 29.2384L36.1007 29.4639L36.1043 29.4701L36.4954 29.2384ZM36.1534 28.87L35.7223 28.7257L35.5217 29.3246H36.1534V28.87ZM37.0742 26.1206L37.2936 25.7225L36.8163 25.4595L36.6432 25.9763L37.0742 26.1206ZM38.2845 28.9884L37.841 29.0883L37.8415 29.0906L38.2845 28.9884ZM41.9021 39.1046L41.5642 38.8005L41.5638 38.801L41.9021 39.1046ZM34.1275 37.5786L34.4803 37.292L33.7351 37.808L34.1275 37.5786ZM34.6142 37.9864L34.3733 38.3719L34.3869 38.3803L34.401 38.3878L34.6142 37.9864ZM35.6535 38.4337L35.4989 38.8611L35.5033 38.8627L35.6535 38.4337ZM36.6401 38.6968L36.7293 38.2509L36.7169 38.2487L36.6401 38.6968ZM42.8361 34.1846L43.2547 34.3617L43.2607 34.3477L43.2656 34.3333L42.8361 34.1846ZM40.7839 29.8566L40.3609 29.6902L40.2427 29.9906L40.4874 30.2012L40.7839 29.8566ZM41.7574 27.3835L42.0345 27.0232L41.5557 26.6549L41.3344 27.217L41.7574 27.3835ZM42.6782 28.4228L42.294 28.6658L42.2976 28.6713L42.6782 28.4228ZM43.4017 29.8698L42.9764 30.0302L42.9764 30.0302L43.4017 29.8698ZM43.8622 31.5799L43.4143 31.6578L43.4157 31.6653L43.8622 31.5799ZM32.3779 45.0901L31.9541 44.9257L31.8325 45.2393L32.0968 45.4472L32.3779 45.0901ZM33.1277 43.1563L33.4054 42.7964L32.9238 42.4248L32.7039 42.992L33.1277 43.1563ZM35.2588 44.8007L35.6742 44.9853L35.8192 44.6589L35.5365 44.4408L35.2588 44.8007ZM34.4169 46.695L34.1358 47.0522L34.595 47.4136L34.8323 46.8796L34.4169 46.695ZM37.3373 46.4582L37.0539 46.8136L37.5116 47.1786L37.7518 46.6447L37.3373 46.4582ZM35.2588 44.8007L34.844 44.6149L34.7 44.9364L34.9754 45.156L35.2588 44.8007ZM36.0481 43.0379L36.3198 42.6734L35.865 42.3345L35.6333 42.8521L36.0481 43.0379ZM38.1661 44.6165L38.5806 44.803L38.7304 44.4702L38.4377 44.252L38.1661 44.6165ZM34.088 38.1574L33.7098 38.4095L34.5193 38.0137L34.088 38.1574ZM34.0486 38.0916L34.37 37.7702L33.642 38.2949L34.0486 38.0916ZM28.124 19.3578L27.3084 21.5415L28.16 21.8596L28.9756 19.6759L28.124 19.3578ZM27.2796 21.7006V34.9345H28.1888V21.7006H27.2796ZM27.2796 34.9345C27.2796 35.9776 26.6969 37.078 25.37 38.2359L25.9677 38.9209C27.3946 37.6758 28.1888 36.3469 28.1888 34.9345H27.2796ZM25.3687 38.237C24.1999 39.2649 22.9832 39.755 21.7092 39.755V40.6641C23.2417 40.6641 24.6648 40.0668 25.9691 38.9197L25.3687 38.237ZM21.7092 39.755C21.111 39.755 20.5746 39.6258 20.0916 39.3728L19.6698 40.1781C20.2918 40.5039 20.9744 40.6641 21.7092 40.6641V39.755ZM20.0866 39.3702C19.5952 39.1206 19.1677 38.7689 18.803 38.3091L18.0907 38.874C18.5328 39.4314 19.0612 39.869 19.6749 40.1807L20.0866 39.3702ZM18.8036 38.3099C18.4482 37.8597 18.165 37.3104 17.9598 36.6537L17.0921 36.9249C17.3254 37.6714 17.6561 38.3236 18.09 38.8732L18.8036 38.3099ZM17.9614 36.6587C17.7652 36.0048 17.6648 35.2821 17.6648 34.4872H16.7557C16.7557 35.3586 16.8658 36.1706 17.0906 36.9199L17.9614 36.6587ZM17.6648 34.4872C17.6648 33.3056 17.8419 32.1406 18.1971 30.9905L17.3284 30.7223C16.9469 31.9577 16.7557 33.2132 16.7557 34.4872H17.6648ZM18.196 30.994C18.3702 30.4454 18.5125 30.0877 18.6205 29.8932L17.8258 29.4517C17.6708 29.7308 17.5062 30.1624 17.3295 30.7189L18.196 30.994ZM18.6205 29.8932C18.649 29.8421 18.6738 29.8011 18.6951 29.7692C18.7168 29.7367 18.732 29.7176 18.7405 29.7081C18.7504 29.6969 18.7441 29.7067 18.7206 29.7219C18.6976 29.7366 18.6339 29.7718 18.5389 29.7718V28.8627C18.2873 28.8627 18.1233 29.034 18.061 29.1041C17.9761 29.1996 17.8981 29.3216 17.8258 29.4517L18.6205 29.8932ZM18.0843 29.3173C18.0843 29.4591 18.0689 29.6897 18.0342 30.0195L18.9383 30.1147C18.9738 29.7781 18.9935 29.5087 18.9935 29.3173H18.0843ZM18.0332 30.0304C18.0077 30.3445 17.9694 30.6816 17.9179 31.0421L18.8179 31.1706C18.8716 30.7944 18.9122 30.4387 18.9394 30.1039L18.0332 30.0304ZM17.9167 31.0513C17.8725 31.4132 17.8328 31.7621 17.7974 32.098L18.7016 32.1932C18.7364 31.8626 18.7755 31.5187 18.8191 31.1614L17.9167 31.0513ZM17.7974 32.098C17.7619 32.4356 17.7423 32.7089 17.7423 32.9086H18.6514C18.6514 32.7575 18.6669 32.5221 18.7016 32.1932L17.7974 32.098ZM17.7423 32.9086C17.7423 34.7012 18.1832 36.1106 19.1619 37.0287L19.7839 36.3657C19.0612 35.6877 18.6514 34.5713 18.6514 32.9086H17.7423ZM19.1611 37.0279C20.1312 37.9426 21.1449 38.4541 22.196 38.4541V37.545C21.4579 37.545 20.6563 37.1882 19.7847 36.3665L19.1611 37.0279ZM22.196 38.4541C22.6389 38.4541 23.0809 38.335 23.5174 38.1167L23.1109 37.3036C22.7756 37.4712 22.4722 37.545 22.196 37.545V38.4541ZM23.5064 38.1221C23.9399 37.9197 24.3467 37.656 24.7267 37.333L24.1379 36.6403C23.8163 36.9136 23.4777 37.1322 23.1219 37.2982L23.5064 38.1221ZM24.7267 37.333C25.1059 37.0106 25.446 36.6418 25.7471 36.2279L25.0119 35.6932C24.7516 36.051 24.4603 36.3663 24.1379 36.6403L24.7267 37.333ZM25.746 36.2293C26.0568 35.8055 26.301 35.3667 26.4749 34.9129L25.6259 34.5877C25.484 34.9582 25.2809 35.3262 25.0129 35.6917L25.746 36.2293ZM26.5049 34.7503V20.5429H25.5958V34.7503H26.5049ZM26.4998 20.4751L26.0789 17.6863L25.1799 17.8219L25.6009 20.6108L26.4998 20.4751ZM25.9872 18.0345L27.75 15.785L27.0344 15.2242L25.2716 17.4737L25.9872 18.0345ZM26.9385 15.5332L27.1095 18.2432L28.0168 18.1859L27.8458 15.476L26.9385 15.5332ZM27.2009 18.489L28.1875 19.7913L28.9121 19.2424L27.9255 17.94L27.2009 18.489ZM38.343 32.4219C38.343 33.1722 38.2999 33.7001 38.2258 34.0287C38.1881 34.1962 38.1501 34.2746 38.1324 34.3008C38.1212 34.3173 38.1702 34.2431 38.2845 34.2431V35.1522C38.5697 35.1522 38.7684 34.9832 38.8855 34.8101C38.996 34.6466 39.0649 34.4405 39.1127 34.2287C39.2096 33.7987 39.2521 33.1887 39.2521 32.4219H38.343ZM38.2845 34.2431H33.0751V35.1522H38.2845V34.2431ZM33.5297 34.6977V34.6845H32.6206V34.6977H33.5297ZM33.0751 34.2299C32.3806 34.2299 31.8674 34.1369 31.5086 33.979L31.1424 34.8112C31.6606 35.0392 32.3138 35.1391 33.0751 35.1391V34.2299ZM31.5155 33.9821C31.1683 33.8224 30.9216 33.5837 30.7586 33.2578L29.9455 33.6644C30.2035 34.1804 30.6057 34.5643 31.1355 34.8081L31.5155 33.9821ZM30.7635 33.268C30.6085 32.9378 30.504 32.2744 30.504 31.1984H29.5949C29.5949 32.2799 29.6921 33.1249 29.9406 33.6542L30.7635 33.268ZM30.504 31.1984V17.6883H29.5949V31.1984H30.504ZM30.4326 17.9329L32.0112 15.4598L31.2449 14.9706L29.6663 17.4438L30.4326 17.9329ZM31.1735 15.2152V31.1984H32.0826V15.2152H31.1735ZM31.1735 31.1984C31.1735 31.5613 31.2383 31.916 31.4402 32.189C31.6612 32.4877 31.9884 32.6133 32.3384 32.6133V31.7042C32.2149 31.7042 32.1869 31.6698 32.1711 31.6484C32.1363 31.6013 32.0826 31.4758 32.0826 31.1984H31.1735ZM32.3384 32.6133H37.1926V31.7042H32.3384V32.6133ZM37.1515 32.6114C37.2755 32.6227 37.4084 32.5935 37.5233 32.5099C37.629 32.433 37.6874 32.3336 37.7198 32.2569C37.7805 32.1134 37.7919 31.9506 37.7919 31.8167H36.8828C36.8828 31.8616 36.8804 31.8916 36.8779 31.9094C36.8752 31.9291 36.8739 31.9231 36.8825 31.9027C36.8908 31.8831 36.919 31.8253 36.9886 31.7747C37.0673 31.7175 37.158 31.6992 37.2338 31.7061L37.1515 32.6114ZM37.7919 31.8167C37.7919 31.5798 37.735 31.283 37.6446 30.9483L36.7669 31.1855C36.8519 31.4998 36.8828 31.7029 36.8828 31.8167H37.7919ZM37.6453 30.9512C37.5536 30.6026 37.4435 30.2586 37.3152 29.9194L36.4649 30.2411C36.5821 30.5509 36.6825 30.8647 36.7662 31.1826L37.6453 30.9512ZM37.3152 29.9194C37.1854 29.5764 37.0431 29.2709 36.8864 29.0066L36.1043 29.4701C36.2283 29.6794 36.3491 29.9352 36.4649 30.2411L37.3152 29.9194ZM36.8901 29.0128C36.8127 28.8775 36.7291 28.7512 36.6377 28.6528C36.565 28.5745 36.3991 28.4155 36.1534 28.4155V29.3246C36.0678 29.3246 36.0099 29.2948 35.9877 29.2813C35.9657 29.2679 35.9606 29.2597 35.9716 29.2714C35.9812 29.2818 35.9978 29.3019 36.021 29.3355C36.0439 29.3686 36.0705 29.4109 36.1007 29.4639L36.8901 29.0128ZM36.5844 29.0144L37.5052 26.265L36.6432 25.9763L35.7223 28.7257L36.5844 29.0144ZM36.8548 26.5188C36.9234 26.5565 37.0821 26.7223 37.2803 27.1919C37.4669 27.6342 37.6551 28.2624 37.841 29.0883L38.7279 28.8886C38.5367 28.0394 38.3346 27.3521 38.1179 26.8384C37.9126 26.3522 37.6548 25.9216 37.2936 25.7225L36.8548 26.5188ZM37.8415 29.0906C38.1814 30.5632 38.343 31.6675 38.343 32.4219H39.2521C39.2521 31.5626 39.0716 30.3779 38.7274 28.8862L37.8415 29.0906ZM43.5786 33.3822C43.5786 35.5127 42.9056 37.3101 41.5642 38.8005L42.2399 39.4086C43.74 37.7419 44.4877 35.7243 44.4877 33.3822H43.5786ZM41.5638 38.801C40.3698 40.1314 39.3039 40.7022 38.3634 40.7022V41.6113C39.6856 41.6113 40.9787 40.814 42.2404 39.4082L41.5638 38.801ZM38.3634 40.7022C37.2011 40.7022 35.9061 39.7206 34.5199 37.3492L33.7351 37.808C35.1377 40.2075 36.6667 41.6113 38.3634 41.6113V40.7022ZM33.7747 37.8652C33.9297 38.0559 34.1351 38.2229 34.3733 38.3719L34.8552 37.6009C34.6725 37.4868 34.5534 37.3819 34.4803 37.292L33.7747 37.8652ZM34.401 38.3878C34.7061 38.5499 35.0735 38.7073 35.4989 38.8611L35.8081 38.0062C35.4091 37.8619 35.0837 37.7211 34.8275 37.585L34.401 38.3878ZM35.5033 38.8627C35.8736 38.9923 36.2272 39.0872 36.5633 39.1448L36.7169 38.2487C36.4391 38.2011 36.135 38.1206 35.8036 38.0046L35.5033 38.8627ZM36.551 39.1425C36.8808 39.2085 37.1918 39.2434 37.482 39.2434V38.3343C37.2635 38.3343 37.0133 38.3078 36.7292 38.251L36.551 39.1425ZM37.482 39.2434C40.0181 39.2434 41.9243 37.5081 43.2547 34.3617L42.4174 34.0076C41.152 37.0001 39.4888 38.3343 37.482 38.3343V39.2434ZM43.2656 34.3333C43.3587 34.0644 43.409 33.7948 43.409 33.5269H42.4999C42.4999 33.6799 42.4713 33.8488 42.4065 34.0359L43.2656 34.3333ZM43.409 33.5269C43.409 32.1316 42.5694 30.7935 41.0804 29.5121L40.4874 30.2012C41.8925 31.4104 42.4999 32.5191 42.4999 33.5269H43.409ZM41.2069 30.0231L42.1803 27.55L41.3344 27.217L40.3609 29.6902L41.2069 30.0231ZM41.4802 27.7438C41.7732 27.9692 42.0457 28.2733 42.2941 28.6658L43.0624 28.1797C42.7669 27.7128 42.4256 27.3241 42.0345 27.0232L41.4802 27.7438ZM42.2976 28.6713C42.5583 29.0704 42.7851 29.5227 42.9764 30.0302L43.8271 29.7094C43.615 29.147 43.3594 28.6345 43.0588 28.1742L42.2976 28.6713ZM42.9764 30.0302C43.1673 30.5365 43.3136 31.0788 43.4143 31.6578L44.31 31.5021C44.2002 30.8709 44.0396 30.273 43.8271 29.7094L42.9764 30.0302ZM43.4157 31.6653C43.5243 32.2336 43.5786 32.8058 43.5786 33.3822H44.4877C44.4877 32.7483 44.428 32.119 44.3086 31.4946L43.4157 31.6653ZM32.8017 45.2544L33.5515 43.3206L32.7039 42.992L31.9541 44.9257L32.8017 45.2544ZM32.85 43.5162L34.9811 45.1605L35.5365 44.4408L33.4054 42.7964L32.85 43.5162ZM34.8435 44.616L34.0015 46.5104L34.8323 46.8796L35.6742 44.9853L34.8435 44.616ZM34.6981 46.3378L32.659 44.7329L32.0968 45.4472L34.1358 47.0522L34.6981 46.3378ZM37.6207 46.1028L35.5422 44.4453L34.9754 45.156L37.0539 46.8136L37.6207 46.1028ZM35.6737 44.9864L36.463 43.2237L35.6333 42.8521L34.844 44.6149L35.6737 44.9864ZM35.7765 43.4024L37.8944 44.9809L38.4377 44.252L36.3198 42.6734L35.7765 43.4024ZM37.7516 44.43L36.9228 46.2716L37.7518 46.6447L38.5806 44.803L37.7516 44.43ZM34.4663 37.9053C34.4606 37.8968 34.4569 37.8909 34.4548 37.8874C34.4525 37.8836 34.453 37.8842 34.4552 37.8884L33.642 38.2949C33.6627 38.3363 33.6873 38.3758 33.7098 38.4095L34.4663 37.9053ZM33.7272 38.4131C33.6892 38.3751 33.6677 38.3338 33.6568 38.3011L34.5193 38.0137C34.4909 37.9284 34.4431 37.8433 34.37 37.7702L33.7272 38.4131Z" fill="#383838"/>
</svg>
