<svg width="120" height="120" viewBox="0 0 120 120" fill="none" xmlns="http://www.w3.org/2000/svg">
<g clip-path="url(#clip0)">
<path d="M57.99 31.8061L55.7224 37.8775V74.6717C55.7224 78.0854 53.8083 81.4624 49.9801 84.8029C46.5421 87.8264 42.8724 89.3382 38.9711 89.3382C37.118 89.3382 35.4234 88.9359 33.8872 88.1312C32.3511 87.351 31.0222 86.2537 29.9006 84.8395C28.8033 83.4497 27.9499 81.7794 27.3403 79.8288C26.7551 77.8781 26.4625 75.7446 26.4625 73.4282C26.4625 70.0145 26.9746 66.6497 27.9987 63.3335C28.4863 61.7974 28.913 60.7002 29.2788 60.0418C29.6445 59.3835 29.9371 59.0543 30.1566 59.0543C30.1566 59.5176 30.1078 60.2125 30.0103 61.1391C29.9371 62.0412 29.8274 63.0044 29.6811 64.0285C29.5592 65.0282 29.4495 65.9913 29.3519 66.9179C29.2544 67.8444 29.2056 68.5515 29.2056 69.0392C29.2056 73.8427 30.3882 77.3539 32.7534 79.5727C35.3136 81.9867 37.8373 83.1936 40.3244 83.1936C41.3241 83.1936 42.3604 82.9254 43.4332 82.389C44.5305 81.877 45.5668 81.2064 46.5421 80.3774C47.5174 79.5484 48.3952 78.5974 49.1755 77.5246C49.9801 76.4273 50.6019 75.3057 51.0408 74.1597V34.6589L49.8704 26.9051L54.7714 20.6508L55.2469 28.1852L57.99 31.8061ZM86.4817 67.6859C86.4817 71.9042 86.0063 74.0134 85.0553 74.0134H70.5717V73.9768C68.5479 73.9768 66.9264 73.7086 65.7073 73.1722C64.4881 72.6113 63.5859 71.7457 63.0007 70.5753C62.4399 69.3806 62.1595 67.2836 62.1595 64.2845V26.7222L66.5485 19.8461V64.2845C66.5485 66.0645 67.2068 66.9544 68.5235 66.9544H82.0196C82.2878 66.9788 82.422 66.6618 82.422 66.0035C82.422 65.5158 82.3 64.8209 82.0562 63.9187C81.8124 62.9922 81.5198 62.0778 81.1784 61.1756C80.837 60.2734 80.4713 59.4932 80.0812 58.8348C79.691 58.1521 79.3741 57.8107 79.1302 57.8107L81.6905 50.1666C82.8852 50.825 84.0069 53.4827 85.0553 58.1399C86.0063 62.2607 86.4817 65.4427 86.4817 67.6859ZM101.039 70.3559C101.039 76.5736 99.0635 81.877 95.1134 86.2659C91.6998 90.0697 88.4202 91.9716 85.2748 91.9716C81.3003 91.9716 77.3746 88.6555 73.4977 82.0233C73.8147 82.4134 74.2658 82.7913 74.851 83.1571C75.6312 83.5716 76.5944 83.9861 77.7404 84.4006C78.7157 84.742 79.6301 84.9858 80.4835 85.1321C81.3369 85.3028 82.1172 85.3881 82.8243 85.3881C89.1395 85.3881 94.1015 81.1211 97.7102 72.587C97.9297 71.953 98.0394 71.3434 98.0394 70.7582C98.0394 67.4177 96.0278 64.0163 92.0045 60.5539L94.7111 53.6778C95.662 54.4093 96.5154 55.3724 97.2713 56.5672C98.0516 57.762 98.7221 59.1031 99.2829 60.5904C99.8437 62.0778 100.27 63.6627 100.563 65.3452C100.88 67.0032 101.039 68.6735 101.039 70.3559ZM68.6333 102.907L70.718 97.531L76.6431 102.103L74.3023 107.37L68.6333 102.907ZM82.422 106.711L76.6431 102.103L78.8376 97.2018L84.7262 101.591L82.422 106.711ZM73.388 83.6325C73.3392 83.5594 73.3026 83.4984 73.2783 83.4497C73.327 83.4984 73.3636 83.5594 73.388 83.6325Z" fill="#14181F"/>
<path d="M57.99 31.8061L59.6912 32.4415L60.0408 31.5057L59.4375 30.7094L57.99 31.8061ZM55.7224 37.8775L54.0211 37.2421L53.9063 37.5494V37.8775H55.7224ZM49.9801 84.8029L48.7861 83.4346L48.7808 83.4392L49.9801 84.8029ZM33.8872 88.1312L34.7299 86.5225L34.7198 86.5173L34.7096 86.5121L33.8872 88.1312ZM29.9006 84.8395L28.4752 85.9648L28.4777 85.968L29.9006 84.8395ZM27.3403 79.8288L25.6009 80.3506L25.6039 80.3605L25.607 80.3704L27.3403 79.8288ZM27.9987 63.3335L26.2678 62.784L26.2656 62.7908L26.2635 62.7977L27.9987 63.3335ZM29.2788 60.0418L30.8663 60.9238L30.8663 60.9238L29.2788 60.0418ZM30.1566 59.0543H31.9726V57.2382H30.1566V59.0543ZM30.0103 61.1391L28.2042 60.9489L28.2019 60.9706L28.2002 60.9923L30.0103 61.1391ZM29.6811 64.0285L27.8833 63.7716L27.8807 63.7901L27.8784 63.8086L29.6811 64.0285ZM29.3519 66.9179L31.158 67.108L31.158 67.108L29.3519 66.9179ZM32.7534 79.5727L33.9992 78.2514L33.9959 78.2483L32.7534 79.5727ZM43.4332 82.389L42.6653 80.7433L42.643 80.7537L42.6211 80.7647L43.4332 82.389ZM46.5421 80.3774L47.7182 81.7611L47.7182 81.7611L46.5421 80.3774ZM49.1755 77.5246L47.711 76.4506L47.7068 76.4564L49.1755 77.5246ZM51.0408 74.1597L52.7367 74.8092L52.8568 74.4955V74.1597H51.0408ZM51.0408 34.6589H52.8568V34.5226L52.8365 34.3879L51.0408 34.6589ZM49.8704 26.9051L48.441 25.7849L47.9578 26.4015L48.0747 27.1761L49.8704 26.9051ZM54.7714 20.6508L56.5839 20.5364L56.2835 15.7769L53.342 19.5306L54.7714 20.6508ZM55.2469 28.1852L53.4345 28.2996L53.4689 28.8456L53.7993 29.2818L55.2469 28.1852ZM70.5717 74.0134H68.7557V75.8294H70.5717V74.0134ZM70.5717 73.9768H72.3878V72.1608H70.5717V73.9768ZM65.7073 73.1722L64.9483 74.822L64.9621 74.8283L64.9759 74.8344L65.7073 73.1722ZM63.0007 70.5753L61.3568 71.347L61.3664 71.3674L61.3764 71.3875L63.0007 70.5753ZM62.1595 26.7222L60.6287 25.7451L60.3435 26.192V26.7222H62.1595ZM66.5485 19.8461H68.3645V13.6257L65.0177 18.869L66.5485 19.8461ZM82.0196 66.9544L82.184 65.1459L82.102 65.1384H82.0196V66.9544ZM82.0562 63.9187L80.2999 64.3809L80.3031 64.3926L82.0562 63.9187ZM80.0812 58.8348L78.5044 59.7358L78.5115 59.7483L78.5188 59.7607L80.0812 58.8348ZM79.1302 57.8107L77.4082 57.234L76.6068 59.6268H79.1302V57.8107ZM81.6905 50.1666L82.5669 48.5761L80.6599 47.5253L79.9684 49.5899L81.6905 50.1666ZM85.0553 58.1399L83.2836 58.5388L83.2858 58.5483L85.0553 58.1399ZM95.1134 86.2659L93.7635 85.0511L93.7618 85.053L95.1134 86.2659ZM73.4977 82.0233L74.9072 80.8781L71.9299 82.9397L73.4977 82.0233ZM74.851 83.1571L73.8885 84.6971L73.9426 84.7309L73.999 84.7608L74.851 83.1571ZM77.7404 84.4006L77.1227 86.1084L77.1315 86.1116L77.1404 86.1147L77.7404 84.4006ZM80.4835 85.1321L80.8396 83.3513L80.815 83.3464L80.7903 83.3422L80.4835 85.1321ZM97.7102 72.587L99.3829 73.2942L99.4065 73.2384L99.4263 73.181L97.7102 72.587ZM92.0045 60.5539L90.3147 59.8887L89.8423 61.0889L90.8199 61.9303L92.0045 60.5539ZM94.7111 53.6778L95.8183 52.2384L93.9053 50.7668L93.0212 53.0126L94.7111 53.6778ZM97.2713 56.5672L95.7366 57.5381L95.7436 57.5492L95.7508 57.5602L97.2713 56.5672ZM99.2829 60.5904L97.5837 61.2311L97.5837 61.2311L99.2829 60.5904ZM100.563 65.3452L98.7739 65.6563L98.7765 65.6713L98.7793 65.6862L100.563 65.3452ZM68.6333 102.907L66.9401 102.251L66.4543 103.504L67.5101 104.334L68.6333 102.907ZM70.718 97.531L71.8274 96.0932L69.9034 94.6086L69.0248 96.8744L70.718 97.531ZM76.6431 102.103L78.3027 102.84L78.8821 101.537L77.7525 100.665L76.6431 102.103ZM74.3023 107.37L73.1791 108.797L75.0137 110.241L75.9619 108.107L74.3023 107.37ZM82.422 106.711L81.2897 108.131L83.1183 109.589L84.078 107.456L82.422 106.711ZM76.6431 102.103L74.9857 101.361L74.4105 102.645L75.5109 103.523L76.6431 102.103ZM78.8376 97.2018L79.9229 95.7457L78.1061 94.3916L77.1801 96.4596L78.8376 97.2018ZM84.7262 101.591L86.3822 102.336L86.9807 101.006L85.8114 100.135L84.7262 101.591ZM73.388 83.6325L71.8769 84.6399L75.1108 83.0583L73.388 83.6325ZM73.2783 83.4497L74.5624 82.1655L71.6539 84.2618L73.2783 83.4497ZM56.2887 31.1707L54.0211 37.2421L57.4236 38.5129L59.6912 32.4415L56.2887 31.1707ZM53.9063 37.8775V74.6717H57.5384V37.8775H53.9063ZM53.9063 74.6717C53.9063 77.3476 52.4146 80.2684 48.7861 83.4346L51.1741 86.1713C55.202 82.6565 57.5384 78.8231 57.5384 74.6717H53.9063ZM48.7808 83.4392C45.6135 86.2247 42.3562 87.5222 38.9711 87.5222V91.1542C43.3887 91.1542 47.4707 89.4282 51.1794 86.1666L48.7808 83.4392ZM38.9711 87.5222C37.3908 87.5222 35.9883 87.1817 34.7299 86.5225L33.0446 89.7399C34.8584 90.6901 36.8452 91.1542 38.9711 91.1542V87.5222ZM34.7096 86.5121C33.4177 85.8559 32.2905 84.9304 31.3234 83.711L28.4777 85.968C29.7539 87.5771 31.2844 88.8461 33.0648 89.7504L34.7096 86.5121ZM31.3259 83.7142C30.3856 82.5231 29.6272 81.0582 29.0737 79.2871L25.607 80.3704C26.2726 82.5006 27.2211 84.3762 28.4752 85.9648L31.3259 83.7142ZM29.0798 79.3069C28.5518 77.547 28.2786 75.5917 28.2786 73.4282H24.6465C24.6465 75.8975 24.9585 78.2092 25.6009 80.3506L29.0798 79.3069ZM28.2786 73.4282C28.2786 70.1992 28.7625 67.0149 29.7339 63.8694L26.2635 62.7977C25.1867 66.2844 24.6465 69.8298 24.6465 73.4282H28.2786ZM29.7296 63.883C30.2123 62.3626 30.5945 61.413 30.8663 60.9238L27.6913 59.1599C27.2316 59.9873 26.7604 61.2322 26.2678 62.784L29.7296 63.883ZM30.8663 60.9238C30.9399 60.7912 31.0014 60.6907 31.0504 60.6171C31.0746 60.5808 31.094 60.5539 31.1084 60.5348C31.1229 60.5155 31.1302 60.5074 31.1299 60.5077C31.1295 60.5081 31.1266 60.5114 31.1209 60.5171C31.1153 60.5228 31.1063 60.5317 31.0937 60.543C31.07 60.5643 31.0257 60.6016 30.9603 60.6436C30.8405 60.7206 30.5603 60.8703 30.1566 60.8703V57.2382C29.1991 57.2382 28.6003 57.8865 28.4152 58.0947C28.14 58.4043 27.9002 58.7839 27.6913 59.1599L30.8663 60.9238ZM28.3405 59.0543C28.3405 59.4185 28.3003 60.0359 28.2042 60.9489L31.8164 61.3292C31.9153 60.3891 31.9726 59.6166 31.9726 59.0543H28.3405ZM28.2002 60.9923C28.1304 61.8529 28.0251 62.7791 27.8833 63.7716L31.4789 64.2853C31.6297 63.2297 31.7439 62.2295 31.8204 61.2858L28.2002 60.9923ZM27.8784 63.8086C27.7554 64.8174 27.6445 65.7905 27.5459 66.7278L31.158 67.108C31.2544 66.1921 31.363 65.2389 31.4838 64.2483L27.8784 63.8086ZM27.5459 66.7278C27.4465 67.6717 27.3896 68.4545 27.3896 69.0392H31.0217C31.0217 68.6486 31.0623 68.0172 31.158 67.108L27.5459 66.7278ZM27.3896 69.0392C27.3896 74.1023 28.6343 78.1986 31.5109 80.8972L33.9959 78.2483C32.1421 76.5092 31.0217 73.5831 31.0217 69.0392H27.3896ZM31.5076 80.8941C34.2647 83.4937 37.212 85.0097 40.3244 85.0097V81.3776C38.4626 81.3776 36.3625 80.4797 33.9992 78.2514L31.5076 80.8941ZM40.3244 85.0097C41.6569 85.0097 42.9702 84.6509 44.2454 84.0133L42.6211 80.7647C41.7505 81.2 40.9912 81.3776 40.3244 81.3776V85.0097ZM44.2012 84.0347C45.4538 83.4501 46.6262 82.6893 47.7182 81.7611L45.3659 78.9937C44.5073 79.7235 43.6072 80.3038 42.6653 80.7433L44.2012 84.0347ZM47.7182 81.7611C48.8072 80.8355 49.7823 79.7777 50.6442 78.5927L47.7068 76.4564C47.0081 77.4171 46.2277 78.2612 45.3659 78.9937L47.7182 81.7611ZM50.6399 78.5985C51.53 77.3847 52.234 76.1217 52.7367 74.8092L49.3449 73.5102C48.9698 74.4896 48.4302 75.4699 47.711 76.4506L50.6399 78.5985ZM52.8568 74.1597V34.6589H49.2247V74.1597H52.8568ZM52.8365 34.3879L51.6661 26.634L48.0747 27.1761L49.2451 34.93L52.8365 34.3879ZM51.2998 28.0252L56.2009 21.7709L53.342 19.5306L48.441 25.7849L51.2998 28.0252ZM52.959 20.7651L53.4345 28.2996L57.0593 28.0708L56.5839 20.5364L52.959 20.7651ZM53.7993 29.2818L56.5424 32.9027L59.4375 30.7094L56.6944 27.0885L53.7993 29.2818ZM84.6657 67.6859C84.6657 69.7621 84.5456 71.1801 84.3536 72.0321C84.2546 72.4709 84.1679 72.6111 84.1751 72.6005C84.2083 72.5515 84.4951 72.1973 85.0553 72.1973V75.8294C86.091 75.8294 86.7939 75.2116 87.1837 74.6353C87.5474 74.0974 87.7579 73.4467 87.8967 72.8309C88.1801 71.5738 88.2978 69.828 88.2978 67.6859H84.6657ZM85.0553 72.1973H70.5717V75.8294H85.0553V72.1973ZM72.3878 74.0134V73.9768H68.7557V74.0134H72.3878ZM70.5717 72.1608C68.6815 72.1608 67.3393 71.9062 66.4387 71.5099L64.9759 74.8344C66.5135 75.511 68.4143 75.7928 70.5717 75.7928V72.1608ZM66.4662 71.5223C65.612 71.1294 65.0204 70.5539 64.6251 69.7632L61.3764 71.3875C62.1514 72.9375 63.3642 74.0933 64.9483 74.822L66.4662 71.5223ZM64.6447 69.8037C64.2706 69.0067 63.9756 67.2728 63.9756 64.2845H60.3435C60.3435 67.2944 60.6092 69.7544 61.3568 71.347L64.6447 69.8037ZM63.9756 64.2845V26.7222H60.3435V64.2845H63.9756ZM63.6903 27.6993L68.0793 20.8232L65.0177 18.869L60.6287 25.7451L63.6903 27.6993ZM64.7325 19.8461V64.2845H68.3645V19.8461H64.7325ZM64.7325 64.2845C64.7325 65.3452 64.9192 66.4706 65.5823 67.367C66.3211 68.3658 67.4126 68.7705 68.5235 68.7705V65.1384C68.3973 65.1384 68.373 65.1172 68.4055 65.1319C68.4484 65.1512 68.4863 65.1854 68.5023 65.207C68.5104 65.218 68.4735 65.1732 68.4352 65.0178C68.3965 64.8609 68.3645 64.6234 68.3645 64.2845H64.7325ZM68.5235 68.7705H82.0196V65.1384H68.5235V68.7705ZM81.8552 68.763C82.3215 68.8054 82.8268 68.6952 83.2638 68.3774C83.6644 68.0861 83.879 67.7141 83.9939 67.4426C84.2072 66.9385 84.238 66.3945 84.238 66.0035H80.6059C80.6059 66.2708 80.5697 66.2145 80.6489 66.0274C80.6967 65.9144 80.8275 65.6582 81.1275 65.44C81.4639 65.1954 81.8519 65.1157 82.184 65.1459L81.8552 68.763ZM84.238 66.0035C84.238 65.27 84.0642 64.3879 83.8093 63.4449L80.3031 64.3926C80.5359 65.254 80.6059 65.7617 80.6059 66.0035H84.238ZM83.8124 63.4566C83.5524 62.4685 83.2405 61.4938 82.8769 60.5329L79.4799 61.8183C79.799 62.6618 80.0723 63.5159 80.3 64.3809L83.8124 63.4566ZM82.8769 60.5329C82.5075 59.5567 82.0988 58.6773 81.6435 57.909L78.5188 59.7607C78.8438 60.309 79.1666 60.9902 79.4799 61.8183L82.8769 60.5329ZM81.6579 57.9338C81.4341 57.5422 81.1772 57.1494 80.8816 56.831C80.6603 56.5927 80.0586 55.9947 79.1302 55.9947V59.6268C78.7618 59.6268 78.5016 59.4985 78.3826 59.426C78.2641 59.3539 78.2111 59.2929 78.22 59.3025C78.224 59.3068 78.2537 59.3402 78.3079 59.4187C78.3605 59.4949 78.4261 59.5989 78.5044 59.7358L81.6579 57.9338ZM80.8522 58.3875L83.4125 50.7434L79.9684 49.5899L77.4082 57.234L80.8522 58.3875ZM80.814 51.7572C80.7803 51.7386 80.8831 51.7876 81.084 52.0752C81.277 52.3515 81.5047 52.7675 81.7546 53.3598C82.2553 54.5462 82.7699 56.2567 83.2836 58.5388L86.827 57.7411C86.2923 55.3659 85.7218 53.419 85.1009 51.9476C84.5261 50.5855 83.7489 49.2274 82.5669 48.5761L80.814 51.7572ZM83.2858 58.5483C84.2279 62.6308 84.6657 65.6522 84.6657 67.6859H88.2978C88.2978 65.2332 87.7846 61.8906 86.8249 57.7316L83.2858 58.5483ZM99.2225 70.3559C99.2225 76.151 97.3965 81.0144 93.7635 85.0511L96.4633 87.4808C100.73 82.7395 102.855 76.9962 102.855 70.3559H99.2225ZM93.7618 85.053C90.4834 88.7061 87.6577 90.1556 85.2748 90.1556V93.7876C89.1828 93.7876 92.9161 91.4333 96.465 87.4789L93.7618 85.053ZM85.2748 90.1556C82.3678 90.1556 78.9096 87.6828 75.0655 81.1068L71.9299 82.9397C75.8396 89.6281 80.2329 93.7876 85.2748 93.7876V90.1556ZM72.0883 83.1684C72.5687 83.7598 73.1923 84.2619 73.8885 84.6971L75.8135 81.6171C75.3393 81.3207 75.0606 81.067 74.9072 80.8781L72.0883 83.1684ZM73.999 84.7608C74.877 85.2273 75.924 85.6748 77.1227 86.1084L78.3581 82.6929C77.2647 82.2974 76.3854 81.9159 75.703 81.5533L73.999 84.7608ZM77.1404 86.1147C78.1935 86.4833 79.2067 86.7558 80.1766 86.922L80.7903 83.3422C80.0534 83.2159 79.2379 83.0007 78.3403 82.6865L77.1404 86.1147ZM80.1273 86.9129C81.0723 87.1019 81.9739 87.2042 82.8243 87.2042V83.5721C82.2604 83.5721 81.6015 83.5037 80.8396 83.3513L80.1273 86.9129ZM82.8243 87.2042C90.1969 87.2042 95.6442 82.1357 99.3829 73.2942L96.0376 71.8797C92.5588 80.1064 88.0822 83.5721 82.8243 83.5721V87.2042ZM99.4263 73.181C99.7024 72.3835 99.8554 71.5728 99.8554 70.7582H96.2233C96.2233 71.114 96.1569 71.5225 95.9941 71.9929L99.4263 73.181ZM99.8554 70.7582C99.8554 66.6437 97.3799 62.7839 93.1892 59.1774L90.8199 61.9303C94.6756 65.2486 96.2233 68.1917 96.2233 70.7582H99.8554ZM93.6944 61.219L96.4009 54.3429L93.0212 53.0126L90.3147 59.8887L93.6944 61.219ZM93.6038 55.1172C94.3588 55.698 95.0748 56.492 95.7366 57.5381L98.806 55.5963C97.9561 54.2529 96.9653 53.1206 95.8183 52.2384L93.6038 55.1172ZM95.7508 57.5602C96.4512 58.6327 97.0642 59.8535 97.5837 61.2311L100.982 59.9497C100.38 58.3526 99.6519 56.8913 98.7918 55.5742L95.7508 57.5602ZM97.5837 61.2311C98.1014 62.6042 98.4994 64.0781 98.7739 65.6563L102.352 65.034C102.042 63.2474 101.586 61.5514 100.982 59.9497L97.5837 61.2311ZM98.7793 65.6862C99.0749 67.2322 99.2225 68.7883 99.2225 70.3559H102.855C102.855 68.5586 102.685 66.7742 102.347 65.0041L98.7793 65.6862ZM70.3265 103.564L72.4112 98.1875L69.0248 96.8744L66.9401 102.251L70.3265 103.564ZM69.6086 98.9687L75.5337 103.541L77.7525 100.665L71.8274 96.0932L69.6086 98.9687ZM74.9836 101.365L72.6428 106.632L75.9619 108.107L78.3027 102.84L74.9836 101.365ZM75.4256 105.943L69.7565 101.48L67.5101 104.334L73.1791 108.797L75.4256 105.943ZM83.5542 105.291L77.7754 100.683L75.5109 103.523L81.2897 108.131L83.5542 105.291ZM78.3006 102.845L80.4951 97.9439L77.1801 96.4596L74.9857 101.361L78.3006 102.845ZM77.7523 98.6579L83.6409 103.047L85.8114 100.135L79.9229 95.7457L77.7523 98.6579ZM83.0701 100.846L80.7659 105.966L84.078 107.456L86.3822 102.336L83.0701 100.846ZM74.899 82.6252C74.8932 82.6165 74.8889 82.6098 74.8858 82.605C74.8843 82.6026 74.8832 82.6008 74.8824 82.5995C74.882 82.5989 74.8817 82.5984 74.8815 82.5981C74.8813 82.5978 74.8812 82.5976 74.8812 82.5976C74.8812 82.5976 74.8813 82.5978 74.8815 82.5982C74.8818 82.5985 74.8821 82.5991 74.8825 82.5998C74.8833 82.6012 74.8846 82.6035 74.8864 82.6066C74.8897 82.6126 74.8953 82.623 74.9026 82.6376L71.6539 84.2618C71.726 84.4059 71.8083 84.537 71.8769 84.6399L74.899 82.6252ZM71.9941 84.7338C71.821 84.5607 71.7192 84.3692 71.6651 84.2068L75.1108 83.0583C75.0079 82.7496 74.833 82.4362 74.5624 82.1655L71.9941 84.7338Z" fill="#14181F"/>
</g>
<defs>
<clipPath id="clip0">
<rect width="120" height="120" fill="white"/>
</clipPath>
</defs>
</svg>
