<svg width="30" height="46" viewBox="0 0 30 46" fill="none" xmlns="http://www.w3.org/2000/svg">
<path d="M12.8495 15.9887L12.1562 17.8449V29.0942C12.1562 30.1379 11.571 31.1704 10.4006 32.1917C9.34945 33.1161 8.2275 33.5783 7.03473 33.5783C6.46816 33.5783 5.95005 33.4553 5.4804 33.2093C5.01074 32.9707 4.60446 32.6353 4.26153 32.2029C3.92607 31.778 3.66515 31.2673 3.47878 30.6709C3.29986 30.0745 3.21041 29.4223 3.21041 28.714C3.21041 27.6704 3.36696 26.6416 3.68006 25.6277C3.82916 25.1581 3.95961 24.8226 4.07144 24.6213C4.18326 24.4201 4.27272 24.3194 4.33981 24.3194C4.33981 24.4611 4.3249 24.6735 4.29508 24.9568C4.27272 25.2326 4.23917 25.5271 4.19444 25.8402C4.15717 26.1459 4.12362 26.4403 4.0938 26.7236C4.06398 27.0069 4.04907 27.2231 4.04907 27.3722C4.04907 28.8408 4.41063 29.9143 5.13375 30.5927C5.9165 31.3307 6.68808 31.6997 7.44847 31.6997C7.75412 31.6997 8.07095 31.6177 8.39896 31.4537C8.73443 31.2971 9.05126 31.0921 9.34945 30.8387C9.64764 30.5852 9.91601 30.2945 10.1546 29.9665C10.4006 29.631 10.5907 29.2881 10.7249 28.9377V16.8609L10.367 14.4903L11.8654 12.5781L12.0108 14.8816L12.8495 15.9887ZM21.5604 26.9584C21.5604 28.2481 21.4151 28.893 21.1243 28.893H16.6962V28.8818C16.0774 28.8818 15.5817 28.7998 15.2089 28.6358C14.8362 28.4643 14.5604 28.1997 14.3815 27.8418C14.21 27.4765 14.1243 26.8354 14.1243 25.9185V14.4343L15.4661 12.3321V25.9185C15.4661 26.4627 15.6674 26.7348 16.07 26.7348H20.1962C20.2782 26.7422 20.3192 26.6453 20.3192 26.4441C20.3192 26.295 20.2819 26.0825 20.2074 25.8067C20.1328 25.5234 20.0434 25.2438 19.939 24.968C19.8347 24.6922 19.7228 24.4536 19.6036 24.2523C19.4843 24.0436 19.3874 23.9392 19.3128 23.9392L20.0956 21.6021C20.4609 21.8034 20.8038 22.616 21.1243 24.0399C21.4151 25.2997 21.5604 26.2726 21.5604 26.9584ZM26.011 27.7747C26.011 29.6757 25.4071 31.2971 24.1994 32.639C23.1558 33.802 22.1531 34.3834 21.1914 34.3834C19.9763 34.3834 18.7761 33.3696 17.5907 31.3419C17.6877 31.4611 17.8256 31.5767 18.0045 31.6885C18.243 31.8152 18.5375 31.942 18.8879 32.0687C19.1861 32.1731 19.4656 32.2476 19.7266 32.2924C19.9875 32.3445 20.226 32.3706 20.4422 32.3706C22.373 32.3706 23.8901 31.066 24.9934 28.4569C25.0605 28.263 25.094 28.0767 25.094 27.8977C25.094 26.8764 24.479 25.8365 23.249 24.7779L24.0764 22.6756C24.3672 22.8993 24.6281 23.1938 24.8592 23.559C25.0978 23.9243 25.3028 24.3343 25.4742 24.7891C25.6457 25.2438 25.7761 25.7284 25.8656 26.2428C25.9625 26.7497 26.011 27.2604 26.011 27.7747ZM16.1035 37.7269L16.7409 36.0831L18.5524 37.4809L17.8368 39.0912L16.1035 37.7269ZM20.3192 38.8899L18.5524 37.4809L19.2234 35.9825L21.0237 37.3244L20.3192 38.8899ZM17.5572 31.8339C17.5423 31.8115 17.5311 31.7929 17.5237 31.778C17.5386 31.7929 17.5497 31.8115 17.5572 31.8339Z" fill="#14181F"/>
<path d="M12.8495 15.9887L13.2115 16.1239L13.2858 15.9248L13.1575 15.7553L12.8495 15.9887ZM12.1562 17.8449L11.7942 17.7097L11.7698 17.7751V17.8449H12.1562ZM10.4006 32.1917L10.1465 31.9006L10.1454 31.9016L10.4006 32.1917ZM5.4804 33.2093L5.6597 32.867L5.65538 32.8648L5.4804 33.2093ZM4.26153 32.2029L3.95826 32.4423L3.9588 32.443L4.26153 32.2029ZM3.47878 30.6709L3.10866 30.782L3.10998 30.7862L3.47878 30.6709ZM3.68006 25.6277L3.31177 25.5108L3.31087 25.5137L3.68006 25.6277ZM4.07144 24.6213L4.4092 24.809L4.4092 24.809L4.07144 24.6213ZM4.33981 24.3194H4.7262V23.933H4.33981V24.3194ZM4.29508 24.9568L3.9107 24.9164L3.90995 24.9256L4.29508 24.9568ZM4.19444 25.8402L3.81185 25.7856L3.81089 25.7934L4.19444 25.8402ZM4.0938 26.7236L4.47807 26.7641L4.47807 26.7641L4.0938 26.7236ZM5.13375 30.5927L5.39882 30.3115L5.39811 30.3109L5.13375 30.5927ZM8.39896 31.4537L8.2355 31.1034L8.22616 31.1081L8.39896 31.4537ZM9.34945 30.8387L9.59969 31.1331L9.59969 31.1331L9.34945 30.8387ZM10.1546 29.9665L9.84298 29.738L9.84208 29.7392L10.1546 29.9665ZM10.7249 28.9377L11.0857 29.0759L11.1113 29.0091V28.9377H10.7249ZM10.7249 16.8609H11.1113V16.8319L11.1069 16.8032L10.7249 16.8609ZM10.367 14.4903L10.0629 14.2519L9.96009 14.3831L9.98497 14.5479L10.367 14.4903ZM11.8654 12.5781L12.2511 12.5538L12.1872 11.5411L11.5613 12.3398L11.8654 12.5781ZM12.0108 14.8816L11.6252 14.906L11.6325 15.0222L11.7028 15.115L12.0108 14.8816ZM16.6962 28.893H16.3098V29.2794H16.6962V28.893ZM16.6962 28.8818H17.0826V28.4954H16.6962V28.8818ZM15.2089 28.6358L15.0474 28.9868L15.0533 28.9894L15.2089 28.6358ZM14.3815 27.8418L14.0316 28.0061L14.0359 28.0146L14.3815 27.8418ZM14.1243 14.4343L13.7986 14.2264L13.7379 14.3215V14.4343H14.1243ZM15.4661 12.3321H15.8525V11.0086L15.1404 12.1242L15.4661 12.3321ZM20.1962 26.7348L20.2312 26.35L20.2137 26.3484H20.1962V26.7348ZM20.2074 25.8067L19.8337 25.905L19.8344 25.9075L20.2074 25.8067ZM19.6036 24.2523L19.268 24.4441L19.2711 24.4493L19.6036 24.2523ZM19.3128 23.9392L18.9464 23.8165L18.7759 24.3256H19.3128V23.9392ZM20.0956 21.6021L20.282 21.2637L19.8763 21.0402L19.7292 21.4794L20.0956 21.6021ZM21.1243 24.0399L20.7474 24.1247L20.7478 24.1268L21.1243 24.0399ZM24.1994 32.639L23.9122 32.3805L23.9119 32.3809L24.1994 32.639ZM17.5907 31.3419L17.8906 31.0982L17.2572 31.5369L17.5907 31.3419ZM18.0045 31.6885L17.7997 32.0162L17.8112 32.0234L17.8232 32.0297L18.0045 31.6885ZM18.8879 32.0687L18.7565 32.4321L18.7602 32.4334L18.8879 32.0687ZM19.7266 32.2924L19.8024 31.9133L19.7918 31.9115L19.7266 32.2924ZM24.9934 28.4569L25.3493 28.6073L25.3543 28.5954L25.3585 28.5832L24.9934 28.4569ZM23.249 24.7779L22.8894 24.6364L22.7889 24.8917L22.9969 25.0708L23.249 24.7779ZM24.0764 22.6756L24.312 22.3694L23.905 22.0563L23.7169 22.5341L24.0764 22.6756ZM24.8592 23.559L24.5326 23.7656L24.5357 23.7703L24.8592 23.559ZM25.4742 24.7891L25.1127 24.9254L25.1127 24.9254L25.4742 24.7891ZM25.8656 26.2428L25.4849 26.309L25.4861 26.3153L25.8656 26.2428ZM16.1035 37.7269L15.7433 37.5872L15.6399 37.8537L15.8645 38.0305L16.1035 37.7269ZM16.7409 36.0831L16.9769 35.7772L16.5676 35.4614L16.3806 35.9434L16.7409 36.0831ZM18.5524 37.4809L18.9055 37.6378L19.0288 37.3604L18.7885 37.175L18.5524 37.4809ZM17.8368 39.0912L17.5978 39.3948L17.9881 39.702L18.1898 39.2481L17.8368 39.0912ZM20.3192 38.8899L20.0783 39.192L20.4674 39.5022L20.6716 39.0484L20.3192 38.8899ZM18.5524 37.4809L18.1998 37.323L18.0774 37.5963L18.3115 37.783L18.5524 37.4809ZM19.2234 35.9825L19.4543 35.6727L19.0677 35.3846L18.8707 35.8246L19.2234 35.9825ZM21.0237 37.3244L21.3761 37.4829L21.5034 37.2L21.2546 37.0146L21.0237 37.3244ZM17.5572 31.8339L17.2357 32.0482L17.9238 31.7117L17.5572 31.8339ZM17.5237 31.778L17.7969 31.5048L17.1781 31.9508L17.5237 31.778ZM12.4875 15.8535L11.7942 17.7097L12.5182 17.9801L13.2115 16.1239L12.4875 15.8535ZM11.7698 17.8449V29.0942H12.5426V17.8449H11.7698ZM11.7698 29.0942C11.7698 29.9809 11.2745 30.9163 10.1465 31.9006L10.6546 32.4829C11.8675 31.4245 12.5426 30.2949 12.5426 29.0942H11.7698ZM10.1454 31.9016C9.15187 32.7753 8.11766 33.1919 7.03473 33.1919V33.9647C8.33734 33.9647 9.54703 33.4569 10.6557 32.4819L10.1454 31.9016ZM7.03473 33.1919C6.52621 33.1919 6.07025 33.0821 5.65969 32.867L5.30111 33.5516C5.82986 33.8285 6.41011 33.9647 7.03473 33.9647V33.1919ZM5.65538 32.8648C5.23769 32.6526 4.87431 32.3537 4.56427 31.9628L3.9588 32.443C4.33461 32.9168 4.78379 33.2888 5.30541 33.5538L5.65538 32.8648ZM4.56481 31.9635C4.26272 31.5808 4.02201 31.1139 3.84758 30.5557L3.10998 30.7862C3.30828 31.4208 3.58941 31.9751 3.95826 32.4423L4.56481 31.9635ZM3.84887 30.5599C3.68213 30.0041 3.5968 29.3897 3.5968 28.714H2.82401C2.82401 29.4548 2.9176 30.145 3.10868 30.782L3.84887 30.5599ZM3.5968 28.714C3.5968 27.7097 3.74736 26.7193 4.04925 25.7418L3.31087 25.5137C2.98656 26.5639 2.82401 27.6311 2.82401 28.714H3.5968ZM4.04834 25.7447C4.19637 25.2784 4.31736 24.9743 4.4092 24.809L3.73367 24.4337C3.60187 24.6709 3.46194 25.0378 3.31178 25.5108L4.04834 25.7447ZM4.4092 24.809C4.43337 24.7655 4.45452 24.7307 4.47261 24.7036C4.49102 24.676 4.50396 24.6597 4.51119 24.6516C4.51962 24.6421 4.51424 24.6505 4.49424 24.6633C4.47471 24.6759 4.4206 24.7058 4.33981 24.7058V23.933C4.1259 23.933 3.98657 24.0786 3.9336 24.1382C3.86143 24.2194 3.79511 24.3231 3.73367 24.4337L4.4092 24.809ZM3.95342 24.3194C3.95342 24.44 3.94033 24.636 3.91081 24.9164L4.67935 24.9973C4.70947 24.7111 4.7262 24.4821 4.7262 24.3194H3.95342ZM3.90995 24.9256C3.88831 25.1926 3.8557 25.4792 3.81193 25.7856L4.57695 25.8949C4.62264 25.575 4.65713 25.2727 4.68021 24.988L3.90995 24.9256ZM3.81089 25.7934C3.77338 26.101 3.73959 26.3976 3.70953 26.6832L4.47807 26.7641C4.50765 26.483 4.54095 26.1907 4.57799 25.887L3.81089 25.7934ZM3.70953 26.6832C3.67932 26.9701 3.66268 27.2024 3.66268 27.3722H4.43546C4.43546 27.2437 4.44864 27.0436 4.47807 26.7641L3.70953 26.6832ZM3.66268 27.3722C3.66268 28.896 4.03746 30.094 4.86938 30.8745L5.39811 30.3109C4.7838 29.7345 4.43546 28.7855 4.43546 27.3722H3.66268ZM4.86868 30.8738C5.69333 31.6513 6.55504 32.0861 7.44847 32.0861V31.3133C6.82111 31.3133 6.13968 31.01 5.39882 30.3115L4.86868 30.8738ZM7.44847 32.0861C7.82494 32.0861 8.20071 31.9848 8.57176 31.7993L8.22616 31.1081C7.94119 31.2506 7.6833 31.3133 7.44847 31.3133V32.0861ZM8.56236 31.8038C8.93087 31.6319 9.27668 31.4076 9.59969 31.1331L9.0992 30.5443C8.82583 30.7766 8.53798 30.9624 8.23556 31.1035L8.56236 31.8038ZM9.59969 31.1331C9.92206 30.8591 10.2111 30.5456 10.4671 30.1937L9.84208 29.7392C9.62088 30.0433 9.37323 30.3113 9.0992 30.5443L9.59969 31.1331ZM10.4662 30.195C10.7303 29.8347 10.9379 29.4617 11.0857 29.0759L10.364 28.7995C10.2434 29.1144 10.0708 29.4273 9.84298 29.738L10.4662 30.195ZM11.1113 28.9377V16.8609H10.3385V28.9377H11.1113ZM11.1069 16.8032L10.7491 14.4326L9.98497 14.5479L10.3428 16.9186L11.1069 16.8032ZM10.6712 14.7286L12.1696 12.8164L11.5613 12.3398L10.0629 14.2519L10.6712 14.7286ZM11.4798 12.6024L11.6252 14.906L12.3964 14.8573L12.2511 12.5538L11.4798 12.6024ZM11.7028 15.115L12.5415 16.222L13.1575 15.7553L12.3188 14.6483L11.7028 15.115ZM21.174 26.9584C21.174 27.5963 21.1375 28.045 21.0745 28.3244C21.0424 28.4667 21.0101 28.5333 20.9951 28.5556C20.9855 28.5697 21.0272 28.5066 21.1243 28.5066V29.2794C21.3668 29.2794 21.5357 29.1357 21.6352 28.9885C21.7292 28.8496 21.7878 28.6743 21.8283 28.4943C21.9107 28.1288 21.9468 27.6103 21.9468 26.9584H21.174ZM21.1243 28.5066H16.6962V29.2794H21.1243V28.5066ZM17.0826 28.893V28.8818H16.3098V28.893H17.0826ZM16.6962 28.4954C16.1059 28.4954 15.6695 28.4163 15.3646 28.2821L15.0533 28.9894C15.4938 29.1833 16.049 29.2682 16.6962 29.2682V28.4954ZM15.3704 28.2847C15.0753 28.149 14.8656 27.9461 14.727 27.669L14.0359 28.0146C14.2552 28.4532 14.5971 28.7796 15.0475 28.9868L15.3704 28.2847ZM14.7312 27.6776C14.5995 27.397 14.5107 26.8331 14.5107 25.9185H13.7379C13.7379 26.8377 13.8205 27.5561 14.0317 28.006L14.7312 27.6776ZM14.5107 25.9185V14.4343H13.7379V25.9185H14.5107ZM14.45 14.6422L15.7918 12.54L15.1404 12.1242L13.7986 14.2264L14.45 14.6422ZM15.0797 12.3321V25.9185H15.8525V12.3321H15.0797ZM15.0797 25.9185C15.0797 26.2269 15.1348 26.5284 15.3064 26.7605C15.4943 27.0144 15.7724 27.1212 16.07 27.1212V26.3484C15.965 26.3484 15.9412 26.3191 15.9277 26.3009C15.8981 26.2609 15.8525 26.1543 15.8525 25.9185H15.0797ZM16.07 27.1212H20.1962V26.3484H16.07V27.1212ZM20.1612 27.1196C20.2667 27.1292 20.3796 27.1043 20.4773 27.0333C20.5672 26.9679 20.6168 26.8834 20.6443 26.8182C20.6959 26.6963 20.7056 26.5578 20.7056 26.4441H19.9328C19.9328 26.4822 19.9308 26.5077 19.9287 26.5228C19.9264 26.5395 19.9253 26.5345 19.9326 26.5171C19.9397 26.5005 19.9636 26.4513 20.0228 26.4083C20.0897 26.3597 20.1668 26.3441 20.2312 26.35L20.1612 27.1196ZM20.7056 26.4441C20.7056 26.2426 20.6573 25.9904 20.5804 25.7059L19.8344 25.9075C19.9066 26.1746 19.9328 26.3473 19.9328 26.4441H20.7056ZM20.5811 25.7083C20.5031 25.412 20.4095 25.1196 20.3004 24.8313L19.5776 25.1047C19.6773 25.3681 19.7626 25.6348 19.8337 25.905L20.5811 25.7083ZM20.3004 24.8313C20.1901 24.5397 20.0691 24.28 19.936 24.0554L19.2711 24.4493C19.3766 24.6272 19.4792 24.8447 19.5776 25.1047L20.3004 24.8313ZM19.939 24.0606C19.8733 23.9456 19.8022 23.8382 19.7246 23.7546C19.6627 23.688 19.5217 23.5528 19.3128 23.5528V24.3256C19.2401 24.3256 19.1908 24.3003 19.172 24.2889C19.1533 24.2775 19.149 24.2704 19.1583 24.2804C19.1665 24.2893 19.1806 24.3063 19.2003 24.3349C19.2197 24.363 19.2423 24.399 19.2681 24.444L19.939 24.0606ZM19.6792 24.0619L20.462 21.7249L19.7292 21.4794L18.9464 23.8165L19.6792 24.0619ZM19.9091 21.9406C19.9673 21.9727 20.1023 22.1135 20.2707 22.5128C20.4294 22.8887 20.5893 23.4227 20.7474 24.1247L21.5013 23.955C21.3388 23.2332 21.167 22.6489 20.9827 22.2123C20.8083 21.799 20.5891 21.4329 20.282 21.2637L19.9091 21.9406ZM20.7478 24.1268C21.0367 25.3785 21.174 26.3172 21.174 26.9584H21.9468C21.9468 26.228 21.7934 25.221 21.5008 23.953L20.7478 24.1268ZM25.6246 27.7747C25.6246 29.5858 25.0525 31.1136 23.9122 32.3805L24.4866 32.8975C25.7618 31.4807 26.3974 29.7656 26.3974 27.7747H25.6246ZM23.9119 32.3809C22.897 33.5118 21.9909 33.997 21.1914 33.997V34.7698C22.3153 34.7698 23.4146 34.0921 24.487 32.8971L23.9119 32.3809ZM21.1914 33.997C20.2034 33.997 19.1027 33.1626 17.9243 31.1469L17.2572 31.5369C18.4495 33.5765 19.7492 34.7698 21.1914 34.7698V33.997ZM17.2909 31.5855C17.4226 31.7476 17.5972 31.8896 17.7997 32.0162L18.2093 31.3609C18.054 31.2638 17.9528 31.1747 17.8906 31.0982L17.2909 31.5855ZM17.8232 32.0297C18.0826 32.1675 18.3949 32.3013 18.7565 32.4321L19.0193 31.7054C18.6801 31.5827 18.4035 31.463 18.1858 31.3473L17.8232 32.0297ZM18.7602 32.4334C19.075 32.5436 19.3756 32.6242 19.6613 32.6732L19.7918 31.9115C19.5557 31.871 19.2972 31.8026 19.0155 31.704L18.7602 32.4334ZM19.6508 32.6712C19.9312 32.7273 20.1956 32.757 20.4422 32.757V31.9842C20.2565 31.9842 20.0438 31.9618 19.8023 31.9135L19.6508 32.6712ZM20.4422 32.757C22.598 32.757 24.2183 31.2819 25.3493 28.6073L24.6375 28.3064C23.5618 30.8502 22.148 31.9842 20.4422 31.9842V32.757ZM25.3585 28.5832C25.4377 28.3546 25.4804 28.1255 25.4804 27.8977H24.7076C24.7076 28.0278 24.6833 28.1714 24.6283 28.3305L25.3585 28.5832ZM25.4804 27.8977C25.4804 26.7117 24.7667 25.5743 23.501 24.485L22.9969 25.0708C24.1913 26.0987 24.7076 27.0411 24.7076 27.8977H25.4804ZM23.6085 24.9194L24.436 22.8172L23.7169 22.5341L22.8894 24.6364L23.6085 24.9194ZM23.8409 22.9819C24.0899 23.1735 24.3216 23.432 24.5327 23.7656L25.1857 23.3525C24.9346 22.9556 24.6445 22.6251 24.312 22.3694L23.8409 22.9819ZM24.5357 23.7703C24.7572 24.1096 24.95 24.494 25.1127 24.9254L25.8358 24.6528C25.6555 24.1747 25.4383 23.7391 25.1827 23.3478L24.5357 23.7703ZM25.1127 24.9254C25.275 25.3558 25.3993 25.8168 25.4849 26.309L26.2463 26.1766C26.153 25.64 26.0164 25.1318 25.8358 24.6528L25.1127 24.9254ZM25.4861 26.3153C25.5784 26.7984 25.6246 27.2848 25.6246 27.7747H26.3974C26.3974 27.2359 26.3466 26.701 26.2451 26.1702L25.4861 26.3153ZM16.4638 37.8666L17.1012 36.2228L16.3806 35.9434L15.7433 37.5872L16.4638 37.8666ZM16.5049 36.389L18.3164 37.7868L18.7885 37.175L16.9769 35.7772L16.5049 36.389ZM18.1993 37.324L17.4837 38.9342L18.1898 39.2481L18.9055 37.6378L18.1993 37.324ZM18.0757 38.7875L16.3425 37.4233L15.8645 38.0305L17.5978 39.3948L18.0757 38.7875ZM20.5601 38.5878L18.7933 37.1788L18.3115 37.783L20.0783 39.192L20.5601 38.5878ZM18.9051 37.6388L19.576 36.1404L18.8707 35.8246L18.1998 37.323L18.9051 37.6388ZM18.9924 36.2923L20.7928 37.6342L21.2546 37.0146L19.4543 35.6727L18.9924 36.2923ZM20.6713 37.1658L19.9669 38.7313L20.6716 39.0484L21.3761 37.4829L20.6713 37.1658ZM17.8787 31.6196C17.8739 31.6123 17.8708 31.6074 17.869 31.6043C17.867 31.6011 17.8675 31.6016 17.8693 31.6052L17.1781 31.9508C17.1956 31.986 17.2166 32.0195 17.2357 32.0482L17.8787 31.6196ZM17.2504 32.0512C17.2181 32.0189 17.1999 31.9838 17.1906 31.9561L17.9238 31.7117C17.8996 31.6392 17.859 31.5669 17.7969 31.5048L17.2504 32.0512Z" fill="#14181F"/>
</svg>
