<svg width="60" height="60" viewBox="0 0 60 60" fill="none" xmlns="http://www.w3.org/2000/svg">
<rect width="60" height="60" fill="white"/>
<circle cx="30" cy="30" r="29.5" fill="#E7EBEE" fill-opacity="0.6" stroke="#E7EBEE"/>
<path d="M31.2084 44.18C30.5844 44.18 30.0204 44.156 29.5164 44.108C29.0124 44.084 28.5804 44.048 28.2204 44V32.264L24.3684 33.596V31.256L28.2204 29.96V27.116L24.3684 28.412V26.072L28.2204 24.776V18.296H31.3164V23.696L38.7324 21.14V23.48L31.3164 26.036V28.88L38.7324 26.324V28.628L31.3164 31.22V41.444C33.5004 41.444 35.2284 41 36.5004 40.112C37.7724 39.2 38.6844 37.988 39.2364 36.476C39.7884 34.964 40.0644 33.272 40.0644 31.4H43.1604C43.1604 33.056 42.9444 34.652 42.5124 36.188C42.1044 37.724 41.4204 39.092 40.4604 40.292C39.5244 41.492 38.3004 42.44 36.7884 43.136C35.2764 43.832 33.4164 44.18 31.2084 44.18Z" fill="#383838"/>
</svg>
