<svg width="30" height="46" viewBox="0 0 30 46" fill="none" xmlns="http://www.w3.org/2000/svg">
<g clip-path="url(#clip0)">
<path d="M12.9584 37.18C12.3344 37.18 11.7704 37.156 11.2664 37.108C10.7624 37.084 10.3304 37.048 9.97044 37V25.264L6.11844 26.596V24.256L9.97044 22.96V20.116L6.11844 21.412V19.072L9.97044 17.776V11.296H13.0664V16.696L20.4824 14.14V16.48L13.0664 19.036V21.88L20.4824 19.324V21.628L13.0664 24.22V34.444C15.2504 34.444 16.9784 34 18.2504 33.112C19.5224 32.2 20.4344 30.988 20.9864 29.476C21.5384 27.964 21.8144 26.272 21.8144 24.4H24.9104C24.9104 26.056 24.6944 27.652 24.2624 29.188C23.8544 30.724 23.1704 32.092 22.2104 33.292C21.2744 34.492 20.0504 35.44 18.5384 36.136C17.0264 36.832 15.1664 37.18 12.9584 37.18Z" fill="#14181F"/>
</g>
<defs>
<clipPath id="clip0">
<rect width="30" height="46" fill="white"/>
</clipPath>
</defs>
</svg>
