<svg width="120" height="120" viewBox="0 0 120 120" fill="none" xmlns="http://www.w3.org/2000/svg">
<g clip-path="url(#clip0)">
<path d="M62.0506 109.2C60.3706 109.2 58.5306 109.08 56.5306 108.84C54.5306 108.68 52.7306 108.4 51.1306 108V71.28L39.4906 75.24V64.8L51.1306 60.84V53.4L39.4906 57.36V46.92L51.1306 42.96V22.32H68.6506V36.96L87.3706 30.48V40.92L68.6506 47.4V54.84L87.3706 48.36V58.68L68.6506 65.16V94.56C73.6906 93.68 77.6106 92 80.4106 89.52C83.2906 87.04 85.2906 83.8 86.4106 79.8C87.6106 75.8 88.2106 71.2 88.2106 66H104.651C104.651 71.52 103.931 76.88 102.491 82.08C101.051 87.2 98.6906 91.8 95.4106 95.88C92.2106 99.96 87.8506 103.2 82.3306 105.6C76.8906 108 70.1306 109.2 62.0506 109.2Z" fill="#14181F"/>
</g>
<defs>
<clipPath id="clip0">
<rect width="120" height="120" fill="white"/>
</clipPath>
</defs>
</svg>
