<svg width="120" height="120" viewBox="0 0 120 120" fill="none" xmlns="http://www.w3.org/2000/svg">
<g clip-path="url(#clip0)">
<path d="M62.4 109.2C52.64 109.2 45.32 107.04 40.44 102.72C35.64 98.4 33.24 92.44 33.24 84.84C33.24 82.44 33.52 80.28 34.08 78.36H28.2V69.48H38.64C40.08 67.8 41.8 66.24 43.8 64.8C45.8 63.36 48.04 62.04 50.52 60.84H28.2V51.96H68.28C70.36 50.04 71.4 47.52 71.4 44.4C71.4 41.84 70.44 39.84 68.52 38.4C66.68 36.96 64 36.24 60.48 36.24C57.28 36.24 54.04 36.68 50.76 37.56C47.56 38.44 43.96 39.68 39.96 41.28L34.56 27.12C38.72 25.28 43.04 23.84 47.52 22.8C52.08 21.68 56.88 21.12 61.92 21.12C70.24 21.12 76.84 23.16 81.72 27.24C86.68 31.24 89.16 37.08 89.16 44.76C89.16 47.24 88.84 49.64 88.2 51.96H94.32V60.84H83.16C81.4 62.84 79.32 64.52 76.92 65.88C74.52 67.16 72.04 68.36 69.48 69.48H94.32V78.36H53.28C51.76 80.12 51 82.28 51 84.84C51 87.8 52.04 90.12 54.12 91.8C56.2 93.4 59.32 94.2 63.48 94.2C67.8 94.2 72.04 93.72 76.2 92.76C80.36 91.72 84.52 90.36 88.68 88.68V103.8C85.24 105.48 81.28 106.8 76.8 107.76C72.32 108.72 67.52 109.2 62.4 109.2Z" fill="#14181F"/>
</g>
<defs>
<clipPath id="clip0">
<rect width="120" height="120" fill="white"/>
</clipPath>
</defs>
</svg>
