<svg width="30" height="46" viewBox="0 0 30 46" fill="none" xmlns="http://www.w3.org/2000/svg">
<path d="M15.6822 37.36C12.8742 37.36 10.7142 36.796 9.20219 35.668C7.69019 34.54 6.93419 32.836 6.93419 30.556C6.93419 29.644 7.06619 28.816 7.33019 28.072H5.63819V25.768H8.66219C9.14219 25.288 9.77819 24.856 10.5702 24.472C11.3862 24.064 12.2262 23.704 13.0902 23.392C13.9782 23.08 14.7582 22.816 15.4302 22.6C16.1022 22.36 16.5342 22.192 16.7262 22.096H5.63819V19.792H19.3902C19.5822 19.456 19.7142 19.108 19.7862 18.748C19.8822 18.388 19.9302 17.932 19.9302 17.38C19.9302 16.252 19.5462 15.376 18.7782 14.752C18.0102 14.104 16.8102 13.78 15.1782 13.78C14.0022 13.78 12.8862 13.936 11.8302 14.248C10.7982 14.56 9.87419 14.908 9.05819 15.292L8.15819 12.448C9.07019 12.016 10.1862 11.656 11.5062 11.368C12.8262 11.08 14.1102 10.936 15.3582 10.936C17.7822 10.936 19.6902 11.44 21.0822 12.448C22.4982 13.432 23.2062 14.944 23.2062 16.984C23.2062 17.488 23.1702 17.992 23.0982 18.496C23.0262 18.976 22.8942 19.408 22.7022 19.792H24.6822V22.096H21.5502C21.1662 22.48 20.5662 22.876 19.7502 23.284C18.9342 23.668 18.0822 24.028 17.1942 24.364C16.3062 24.7 15.5022 24.988 14.7822 25.228C14.0622 25.468 13.5942 25.648 13.3782 25.768H24.6822V28.072H10.6782C10.4862 28.432 10.3542 28.768 10.2822 29.08C10.2102 29.392 10.1742 29.824 10.1742 30.376C10.1742 33.16 12.1062 34.552 15.9702 34.552C17.3382 34.552 18.6582 34.384 19.9302 34.048C21.2262 33.688 22.3062 33.316 23.1702 32.932V35.848C22.3542 36.232 21.2622 36.58 19.8942 36.892C18.5262 37.204 17.1222 37.36 15.6822 37.36Z" fill="#14181F"/>
</svg>
